<?xml version="1.0" encoding="utf-8"?>
<!-- Generator: Adobe Illustrator 24.0.1, SVG Export Plug-In . SVG Version: 6.00 Build 0)  -->
<svg version="1.1" id="Layer_1" xmlns="http://www.w3.org/2000/svg" xmlns:xlink="http://www.w3.org/1999/xlink" x="0px" y="0px"
	 viewBox="0 0 571.9 689" style="enable-background:new 0 0 571.9 689;" xml:space="preserve">
<style type="text/css">
	.st0{fill:#FFB8B8;}
	.st1{fill:#2F2E41;}
	.st2{fill:#2F3192;}
	.st3{fill:#E6E6E6;}
	.st4{fill:#FFFFFF;}
	.st5{fill:#F2F2F2;}
</style>
<path class="st0" d="M4.1,329.6c7.9,13.3,25.1,17.6,38.4,9.6c1.4-0.8,2.7-1.8,4-2.9l86.3,49.5l-3.2-51.6l-81.4-39.1
	c-11-11-28.8-11.1-39.8-0.1C-0.9,304.2-2.7,318.4,4.1,329.6z"/>
<path class="st1" d="M253.8,527.7c-25.6,35.8-24.7,95.7-17.5,161.3h121l5.3-12.3l7,12.3h114c0,0-8.8-166.6-24.5-171.8
	C443.2,512,253.8,527.7,253.8,527.7z"/>
<circle class="st0" cx="357.3" cy="92.2" r="61.4"/>
<path class="st2" d="M401.6,169.5l12,23l83,37l-21.8,211.1l-9.2,21.9l5,19l-12,14c12,10.9,13.5,22.2,7,34l-38.2,8.8
	c0,0-212.5,18.9-194.6-14c19.6-36,24.6-142.2-18.6-199c-36.7-48.2-8.5-110.7-8.5-110.7l87-26l32-19L401.6,169.5z"/>
<path class="st1" d="M384.5,2.3c0.6-1.2,1.9-2,3.3-1.9c-28.1-1.7-57.7,1.6-81.2,17.1c-5.7,3.8-11.1,8.2-17.3,10.9
	c-0.9,0.4-1.4,1.5-0.9,2.5c0.1,0.3,0.3,0.5,0.6,0.7l0.7,0.5c0.8,0.6,1,1.8,0.3,2.6c-0.2,0.3-0.6,0.5-0.9,0.6l0,0
	c-1,0.3-1.5,1.3-1.2,2.3c0.1,0.4,0.4,0.8,0.8,1l5.2,3.4c0.9,0.5,1.1,1.7,0.6,2.6c-0.1,0.2-0.3,0.4-0.6,0.6c-0.4,0.3-0.9,0.5-1.4,0.7
	c-1,0.4-1.4,1.4-1.1,2.4c0.1,0.3,0.3,0.5,0.5,0.7c2.3,2,4,4.5,5,7.4c1.7,4.5,2.1,9.4,2.3,14.3c1.8-7,9.4-11.1,16.6-11.5
	s14.2,2,21.2,3.7c15.2,3.7,31.1,4.3,46.5,1.8c-5.3,10.5-0.8,23.1,3.6,34l14.4-6.2c19.8-11.2,6,36.2-1.4,42.7
	c15.1,5.2,54.8-53,42-75.1c-6.6-11.5-1.9-26.3-15-37.2c-6.4-6.7-19.1-3.7-25.7-9.3c-2.6-2.2,1.3-8.1-2.2-9.4
	C398.3,3.7,384.7,1.9,384.5,2.3z"/>
<path class="st2" d="M280.6,194.4c-11.3,50-40.1,166.7-69.4,191.1c-1.9,1.8-4.1,3.1-6.5,3.8c-103,25.1-136-38.9-136-38.9
	s27.6-13.5,28.3-39.7l55.7,17.3l48.5-109.2l7.1-6.7l0,0L280.6,194.4z"/>
<path class="st0" d="M500.1,656.1c11.1-10.7,11.5-28.4,0.8-39.6c-1.1-1.2-2.4-2.3-3.7-3.2l28.9-95.2l-49.5,14.7l-19.8,88.1
	c-8.3,13.1-4.3,30.5,8.8,38.8C476.5,666.7,490.8,665.1,500.1,656.1z"/>
<path class="st2" d="M473.7,224.2l22.9,5.3c0,0,94.6,184,71.8,219.1s-50.7,151.2-50.7,151.2s-41.3-8.2-57.1-29.2l28.9-137.7
	l-29.8-115.7L473.7,224.2z"/>
<path class="st3" d="M39.6,497.5l0.8-296.4c0-12.5,10.2-22.6,22.7-22.6l223.8,0.6c12.5,0,22.6,10.2,22.6,22.7l-0.8,296.4
	c0,12.5-10.2,22.6-22.7,22.6l-223.8-0.6C49.7,520.1,39.6,509.9,39.6,497.5z"/>
<path class="st4" d="M57,408l0.5-190.5c0-11.7,9.6-21.2,21.2-21.1l192.4,0.5c11.7,0,21.2,9.6,21.1,21.2l-0.7,263.7
	c0,11.7-9.6,21.2-21.3,21.1l-119.2-0.3C99,502.4,56.9,460.1,57,408z"/>
<path class="st2" d="M249.1,280h-150c-5,0-9-4-9-9s4-9,9-9h150c5,0,9,4,9,9S254.1,280,249.1,280z"/>
<path class="st2" d="M132.1,238.5h-33c-5,0-9-4-9-9s4-9,9-9h33c5,0,9,4,9,9S137.1,238.5,132.1,238.5z"/>
<path class="st2" d="M249.1,321.5h-150c-5,0-9-4-9-9s4-9,9-9h150c5,0,9,4,9,9S254.1,321.5,249.1,321.5z"/>
<path class="st2" d="M249.1,363h-150c-5,0-9-4-9-9s4-9,9-9h150c5,0,9,4,9,9S254.1,363,249.1,363z"/>
<ellipse transform="matrix(7.088900e-02 -0.9975 0.9975 7.088900e-02 -215.2762 641.967)" class="st2" cx="237" cy="436.5" rx="35.8" ry="35.8"/>
<path class="st4" d="M232.1,455.2c-1.3,0-2.4-0.6-3.2-1.6l-9.8-13c-1.3-1.8-1-4.3,0.8-5.6s4.3-1,5.6,0.8l6.4,8.5l16.4-24.6
	c1.2-1.8,3.7-2.3,5.5-1.1c1.8,1.2,2.3,3.7,1.1,5.5c0,0,0,0,0,0l-19.5,29.3c-0.7,1.1-1.9,1.7-3.2,1.8
	C232.2,455.2,232.1,455.2,232.1,455.2z"/>
<circle class="st5" cx="160.6" cy="92.5" r="17"/>
<circle class="st5" cx="98.6" cy="581.5" r="17"/>
<circle class="st5" cx="489.6" cy="158.5" r="17"/>
</svg>
