<?xml version="1.0" encoding="utf-8"?>
<!-- Generator: Adobe Illustrator 24.0.1, SVG Export Plug-In . SVG Version: 6.00 Build 0)  -->
<svg version="1.1" id="Layer_1" xmlns="http://www.w3.org/2000/svg" xmlns:xlink="http://www.w3.org/1999/xlink" x="0px" y="0px"
	 viewBox="0 0 799 667.1" style="enable-background:new 0 0 799 667.1;" xml:space="preserve">
<style type="text/css">
	.st0{fill:#2F3192;}
	.st1{fill:#2F2E41;}
	.st2{fill:#9F616A;}
	.st3{fill:#CCCCCC;}
	.st4{fill:#F2F2F2;}
	.st5{fill:#E6E6E6;}
	.st6{opacity:0.1;enable-background:new    ;}
</style>
<title>newspaper</title>
<path class="st0" d="M649,630.2H164l0.2-51.4c0.6-130.1,104.4-237.3,234.5-239.5c1.4,0,2.8,0,4.2,0h0c29.3,0,58.3,5.2,85.8,15.4
	c92.1,34.3,153.8,121.4,158,219.5L649,630.2z"/>
<rect y="630.2" class="st1" width="799" height="2"/>
<polygon class="st1" points="398.3,400.2 419.7,415.7 441,598.3 491.5,598.3 474.1,390.5 404.1,363.3 "/>
<path class="st1" d="M308.9,341.9c0,0-5.8,66.1,17.5,68s112.7-19.4,112.7-19.4L481.8,542l64.1-33c0,0-38.9-171-62.2-180.7
	s-101-29.1-101-29.1l-56.3,9.7L308.9,341.9z"/>
<path class="st1" d="M448.8,594.4c0,0-11.7,44.7-3.9,48.6c4.7,2.3,9.2,4.9,13.6,7.8V643c0,0,9.7,9.7,9.7,17.5s52.5,9.7,52.5,0
	s-1.9-21.4-11.7-27.2s-21.4-38.9-21.4-38.9L448.8,594.4z"/>
<polygon class="st1" points="505.1,514.8 509,551.7 522.6,575 555.7,538.1 530.4,497.3 "/>
<path class="st1" d="M536.2,551.7c0,0,7.2-24.5,14.3-21.9s34.3,27.8,34.3,27.8l19.4,11.7c0,0,38.9,3.9,27.2,15.5
	s-54.4,27.2-73.8,19.4s-23.3-9.7-23.3-9.7l-5.8,3.9l-23.3-5.8l3.9-40.8C509,551.7,514.9,569.2,536.2,551.7z"/>
<circle class="st2" cx="375" cy="54.3" r="44.7"/>
<path class="st2" d="M346.8,80.6c0,0,3.9,40.8-7.8,40.8s1.9,50.5,33,50.5s42.7-60.2,42.7-60.2s-21.4-7.8-17.5-33
	S346.8,80.6,346.8,80.6z"/>
<path class="st0" d="M343.7,118.3l-16.3,7L283.1,144c-3.7,1.6-5.9,5.3-5.4,9.3l16.7,148.7c0,0-17.5,36.9,9.7,38.9l3.9,13.6
	l31.1-36.9l116.6-3.9l1.9-188.5l-53.3-21.1C404.2,104.2,397,144.3,343.7,118.3z"/>
<path class="st0" d="M289.5,149.5l-7.2-2.1c-3.1-0.9-6.4,0.9-7.3,4.1c-0.1,0.2-0.1,0.5-0.2,0.7l-19.1,119.5
	c-1.5,8.9-0.1,17.9,4.1,25.9c5.9,11.1,18.1,21.3,43.2,9.2l17.5-126.3L289.5,149.5z"/>
<path class="st0" d="M435.2,122.3l23.3,3.9l64.1,89.4l5.8,15.5l36.9-11.7c0,0-1.9,17.5,17.5,15.5c0,0-23.3,64.1-71.9,44.7
	S446.9,202,446.9,202L435.2,122.3z"/>
<polygon class="st3" points="462.4,161.2 375,126.2 371.1,137.9 411.9,172.9 "/>
<path class="st1" d="M348.1,57.2c1.7-0.4,1.9-2.6,1.9-4.3c0.3-9.1,5.8-18.5,14.6-21.2c3.4-0.9,6.9-1.1,10.3-0.6
	c4.9,0.7,9.6,2.2,14,4.7c2.3,1.3,4.5,2.8,7.1,3.2c1.7,0.3,9.1,2.4,10.8,2.7c3.7,0.7,7.2,4,10.8,2.8c3.4-1.2,4.2-5.6,4.3-9.3
	c0.2-8.3-6.1-19.7-11.6-25.9c-4.2-4.7-10.5-6.8-16.7-7.9C386.3,0.2,379-0.2,371.7,0c-9.9,0.2-20.1,0.9-29,5.2s-16.4,12.8-16.8,22.7
	c-0.1,2.1,0.1,4.1,0,6.2c-0.4,5-3.1,9.5-4.3,14.4c-1.8,7.2-0.5,14.9,3.7,21.1c3.3,4.9,16.5,9.3,16.4,15.2c2.4-2.5-3.2-5-0.9-7.5
	c2.2-1.7,2.9-4.7,1.8-7.2l-2.5-9.9c-0.5-1.8-0.9-3.8-0.2-5.5C342.4,47.9,345.3,57.9,348.1,57.2z"/>
<polygon class="st4" points="371.1,137.9 334.2,281.7 477.9,332.2 561.5,262.2 613.9,104.9 528.5,167 "/>
<rect x="446.9" y="100.5" transform="matrix(0.2552 -0.9669 0.9669 0.2552 166.4248 561.7582)" class="st5" width="1.9" height="144.7"/>
<rect x="443" y="110.2" transform="matrix(0.2552 -0.9669 0.9669 0.2552 154.1382 565.2367)" class="st5" width="1.9" height="144.7"/>
<rect x="441" y="120" transform="matrix(0.2552 -0.9669 0.9669 0.2552 143.2988 570.5936)" class="st5" width="1.9" height="144.7"/>
<rect x="439.1" y="129.7" transform="matrix(0.2552 -0.9669 0.9669 0.2552 132.4593 575.9505)" class="st5" width="1.9" height="144.7"/>
<rect x="437.1" y="139.4" transform="matrix(0.2552 -0.9669 0.9669 0.2552 121.6198 581.3074)" class="st5" width="1.9" height="144.7"/>
<rect x="435.2" y="149.1" transform="matrix(0.2552 -0.9669 0.9669 0.2552 110.7803 586.6643)" class="st5" width="1.9" height="144.7"/>
<rect x="433.3" y="158.8" transform="matrix(0.2552 -0.9669 0.9669 0.2552 99.9408 592.0212)" class="st5" width="1.9" height="144.7"/>
<rect x="431.3" y="168.5" transform="matrix(0.2552 -0.9669 0.9669 0.2552 89.1014 597.3781)" class="st5" width="1.9" height="144.7"/>
<rect x="429.4" y="178.2" transform="matrix(0.2552 -0.9669 0.9669 0.2552 78.2619 602.735)" class="st5" width="1.9" height="144.7"/>
<path class="st2" d="M311.9,243.6c0,0,43.7-26.1,63.1-8.6s-56.3,42.7-56.3,42.7L311.9,243.6z"/>
<path class="st0" d="M264.2,256.4l56.3-21.4c0,0-9.7,36.9,9.7,38.9l-27.2,33C303.1,306.9,248.7,306.9,264.2,256.4z"/>
<polygon class="st5" points="412.5,255.6 487.3,280.8 469.6,319.4 394.8,294.2 "/>
<polygon class="st3" points="545,173.8 601.3,131.1 585.8,183.5 527.5,226.3 "/>
<rect x="510.6" y="223.4" transform="matrix(0.7967 -0.6044 0.6044 0.7967 -24.6 375.5534)" class="st5" width="70.7" height="1.9"/>
<rect x="506.7" y="244.7" transform="matrix(0.7967 -0.6044 0.6044 0.7967 -38.3056 377.5496)" class="st5" width="70.7" height="1.9"/>
<path class="st2" d="M577,237c0,0,48.6-29.1,17.5-40.8s-31.1,33-31.1,33S561.5,238.9,577,237z"/>
<polygon class="st6" points="292.4,171.9 290.5,247.7 320.6,239.1 296.3,239.9 "/>
<path class="st0" d="M80.4,595.9c6.1,22.5,26.9,36.4,26.9,36.4s11-22.5,4.9-44.9s-26.9-36.4-26.9-36.4S74.3,573.4,80.4,595.9z"/>
<path class="st0" d="M89.3,591.1c16.7,16.2,18.7,41.2,18.7,41.2s-25-1.4-41.6-17.6s-18.7-41.2-18.7-41.2S72.7,574.8,89.3,591.1z"/>
<rect x="626" y="379.2" class="st4" width="30" height="30"/>
<rect x="506" y="39.2" class="st4" width="30" height="30"/>
<circle class="st4" cx="159" cy="328.2" r="15"/>
</svg>
