<svg xmlns="http://www.w3.org/2000/svg" viewBox="0 0 919.99 919.51"><defs><style>.cls-1{fill:#313392;}.cls-2{fill:#fdcc02;}.cls-3{fill:#053498;}.cls-4{fill:#14106b;}.cls-5{fill:#030168;}</style></defs><title>logo</title><g id="Layer_2" data-name="Layer 2"><g id="Layer_1-2" data-name="Layer 1"><path class="cls-1" d="M474.09,0c1.26,1.19,2.83.66,4.26.71A446.83,446.83,0,0,1,605.88,23.77,454.64,454.64,0,0,1,790.16,139.69Q871,222.93,902.8,334.6a439,439,0,0,1,15.06,80.56,471,471,0,0,1,.41,84.72q-12.6,141.69-102.89,251.88-73.75,89.84-181.6,133.83a462.18,462.18,0,0,1-186.21,33.68C344,915.67,251.39,882,171,816.56c-76.6-62.25-127.9-141.41-154.1-236.69A444.91,444.91,0,0,1,3.4,507.2c-1-10-1.52-20-2.27-30-.1-1.36.55-3.07-1.13-4V446.26c1.72-.94,1-2.65,1.15-4,.55-6.56.89-13.13,1.38-19.69a431.94,431.94,0,0,1,14.38-82.94c27.4-99.19,81.68-180.63,163-243.55C258,35.67,346.78,4.1,445.5.62c1.75-.06,3.59.35,5.25-.62ZM460.4,890.51C700.42,890,891.08,696,891.07,460c0-238.21-192.83-429.4-428.18-430.68C226.52,28,30.81,218.42,30,458.38,29.13,696.43,221.11,889.89,460.4,890.51Z"/><path class="cls-2" d="M136.72,416.79c-.6-10.06.83-20,1.7-30a213.34,213.34,0,0,1,9.43-45.07c4.66-14.92,11.8-28.68,19.29-42.33,7.61-13.87,17.5-26,27.53-38.07,5.47-6.57,12.06-12,18.46-17.63,3.94-3.45,8-6.8,11.92-10.21a139.84,139.84,0,0,1,18.34-12.83,236.6,236.6,0,0,1,59.3-26A195,195,0,0,1,336.5,188c16.05-1.57,32.22-2.17,48.38-.59s31.83,5.09,47.36,9.5c5.05,1.44,9.54,4.23,14.29,6.42Q458.74,209,471,214.49a92.22,92.22,0,0,1,17.61,10.64,76.48,76.48,0,0,0,11.11,7.55c3.64,1.86,6.26,5.07,9.17,7.84,9.2,8.76,18.46,17.49,27.07,26.84,10.18,11.07,18.1,23.77,25.15,37A227.77,227.77,0,0,1,583.67,366c.15.73.42,1.44.52,2.18.36,2.72-.46,3.6-3.23,3.21-3.7-.54-7.37-1.26-11.05-1.86-17.83-2.9-35.68-5.72-53.5-8.68-12.52-2.09-25-4.4-37.51-6.53-8.09-1.37-16.22-2.53-24.31-3.9-11.48-1.94-22.93-4.1-34.42-5.95-8-1.28-16-1.82-23.95-3.34-12.91-2.49-26-4.08-38.89-6.35-15.87-2.79-31.69-5.91-47.66-8.13-10.94-1.53-21.81-3.6-32.67-5.62-10.44-1.94-12.59-1-17.66,8.21a54.89,54.89,0,0,1-10.31,14c-3.44,3.21-5.58,7.35-8.08,11.24-11.71,18.22-23.33,36.48-35.56,54.37-16.61,24.3-33.58,48.36-49.4,73.19-.24.37-.5.74-.78,1.1-1.24,1.58-1.85,4.25-4.42,3.88s-1.79-3.14-2.31-4.83q-4-12.84-7.1-25.9c-2.35-9.78-3.27-19.73-4.08-29.71C137,423.36,136.91,420.07,136.72,416.79Z"/><path class="cls-3" d="M161.45,501.49c5.81-9.24,11.56-18.5,17.42-27.69Q222.42,405.52,266,337.26c3.46-5.41,3.81-5.53,10.23-4.42q48.17,8.3,96.34,16.54l139.2,24c44.63,7.7,89.24,15.54,134,22.76,6.64,1.07,13.23,2.42,19.87,3.49,2.68.43,4.08,2.14,5.43,4.2q14.78,22.5,29.64,44.95,32.37,48.78,64.8,97.54c1.08,1.62,2.16,3.23,3.15,4.9.51.85,1.55,1.65,1,2.79s-1.81.73-2.81.72l-24.69-.16q-47.57-.33-95.15-.64-86.18-.52-172.36-1c-10.92-.07-21.84-.4-32.76-.22-5.27.09-8.82-1.8-12.17-5.9-22-26.86-44.24-53.49-66.33-80.26-28.47-34.51-57.92-68.2-85.8-103.18a30.81,30.81,0,0,0-4-4.2c-1.92-1.65-2.82-1.54-4.55.38-1.09,1.22-2,2.58-3,3.91-24,32.85-48.45,65.37-72.14,98.46-9.75,13.62-20.09,26.81-30.17,40.2-.79,1-1.41,2.33-2.84,2.74l-.21-2.16,0,0A1.2,1.2,0,0,0,161.45,501.49Zm309.61,19.25c7.08.21,13.33.06,19.6.77,5.76.65,11.65.06,17.49.22,3.56.09,7.11-.25,10.7.53,2.58.56,6.4,1.73,7.79-.93,1.29-2.48-1.39-5.12-3.2-7.33q-6.8-8.31-13.47-16.7c-5-6.29-10-12.62-15-18.92Q483.6,464,472.22,449.67c-7-8.89-13.92-17.86-21-26.69-8.4-10.44-17-20.72-25.21-31.33a17.29,17.29,0,0,0-10.72-6.71c-3.39-.66-6.82-.36-10.19-1.26a62.53,62.53,0,0,0-12.32-2c-7.45-.45-14.68-2.3-22.08-3.11-9.15-1-18.21-2.74-27.31-4.18s-18.18-3-27.3-4.27c-3.23-.44-6.42-1.53-9.75-1.15-1.79.21-2.11.89-.94,2.31,1.89,2.31,3.88,4.53,5.82,6.79q4.35,5.1,8.68,10.22c4.83,5.68,9.18,11.73,14.2,17.27,4.2,4.63,8,9.63,12,14.41,5.47,6.5,11,12.93,16.5,19.42s10.93,13,16.36,19.53c6.38,7.68,12.72,15.39,19.1,23.06q8.43,10.14,16.94,20.22,6,7.17,12.19,14.28c1.06,1.23,2.16,2.57,4.06,2.47,3.6-.2,7.15.87,10.66.79C451.93,519.56,461.87,521.38,471.06,520.74Zm161.41,3.63c1.34,0,2.69.06,4,0,1.14-.06,2.57.5,3.32-.71.87-1.41-.42-2.5-1-3.63a9.2,9.2,0,0,0-1.17-1.35c-2.48-3-5-6-7.43-8.93-7.91-9.51-15.79-19-23.73-28.52-5.35-6.4-10.85-12.68-16.16-19.11-6.17-7.46-12.21-15-18.31-22.55s-12.1-15.11-18.34-22.51c-3.17-3.76-6.12-7.72-9.79-11.06a12.45,12.45,0,0,0-7-3.65c-8.43-.88-16.8-2.2-25.13-3.7-1.47-.26-2.91-.62-4.38-.84-7.34-1.13-14.68-2.28-22-3.32-5.31-.75-10.52-2.07-15.8-2.84-8.52-1.26-17.09-2.16-25.6-3.58-2.76-.46-5.51-1.42-8.4-1.11-1,.12-2.25-.18-2.82.92-.67,1.28.3,2.27,1.05,3.16,2.6,3.08,5.32,6.05,7.85,9.17,5.54,6.83,11,13.74,16.48,20.58q10.08,12.54,20.23,25,9,11.11,18,22.2c7.15,8.77,14.39,17.48,21.48,26.31,6.14,7.67,12.12,15.47,18.21,23.18,1,1.3,2.17,2.53,4.07,2.42,5.68-.34,11.26,1.4,16.95.91a10.08,10.08,0,0,1,2.69.07c8.84,1.68,17.83.53,26.75,1.53,7.09.8,14.42-.46,21.5.41C616.13,523.83,624.4,522.48,632.47,524.37Zm98.07,4.09c.39-.07,1.26-.26,2.14-.41,3-.53,3.2-.93,1.48-3.62s-3.46-5.21-5.18-7.82q-18-27.23-36-54.46c-7.81-11.81-15.71-23.56-23.52-35.36-1.84-2.77-4.16-4.86-7.6-4.71a38.45,38.45,0,0,1-9.74-1.2c-17.75-3.73-35.82-5.57-53.59-9-13-2.51-26.22-3.52-39.08-6.69-1.38-.34-3.21-.87-4.18.5-1.13,1.6.65,2.81,1.47,3.85,4.51,5.72,9.22,11.3,13.81,17q10.7,13.18,21.3,26.42c6.44,8,12.84,16,19.3,24q10.93,13.55,22,27c4.8,5.88,9.69,11.69,14.49,17.57a7.49,7.49,0,0,0,6.64,2.87c4.48-.18,9.09-.6,13.43.22a101.9,101.9,0,0,0,19.55,1.53c5.08,0,10.21-.35,15.24.19C711.67,527.36,720.9,527.49,730.54,528.46Z"/><path class="cls-4" d="M179.64,653.74l-24.8-47.43c-1.53,3.8-1.37,7.08-1.74,10.21-1.14,9.5-2,19-3,28.56-.28,2.58.61,4.62,3.25,6.55H139.23c5-2.52,5.69-6.91,6.27-11.49,1.95-15.42,4.05-30.83,6.09-46.25.19-1.45.16-3,1.85-4.34,9,17.24,18,34.38,27.29,52.06l26.77-52.07c1.64.49,1.53,1.47,1.64,2.33q3.23,24.92,6.44,49.83c.8,6.19,2.43,8.55,6.72,9.29,4.56.79,10.18-1.09,12.44-5.92C240,634,245.3,623,250.57,611.9c3.15-6.61,6.24-13.25,9.38-19.86.43-.92.55-2.07,1.91-2.66,1.6,3.31,3.22,6.62,4.79,10q10,21.3,20,42.62c1.86,4,4.3,7.41,9.29,9.65h-19.1c3.93-3.94,4-4.18,1.75-9.32-1.18-2.74-2.38-5.47-3.51-8.24a4.35,4.35,0,0,0-4.48-3c-6.13.13-12.25-.2-18.38-.51-3.89-.2-6.49,1.78-7.84,5.45-1.08,2.94-2.23,5.86-3.34,8.79-1,2.71-.29,4.94,2.95,6.84H204.46c3.59-1.84,4.32-4.37,4-7.43-1.3-12.19-2.55-24.39-3.83-36.59,0-.24-.28-.45-.82-1.29-4.56,7.74-8.38,15.52-12.45,23.16S183.56,644.89,179.64,653.74Zm81.08-53.17c-4.24,9.38-8.13,18-12.32,27.21,7.66,0,14.49,0,21.32,0,2,0,2.21-1.14,1.54-2.68C267.88,617.2,264.48,609.31,260.72,600.57Z"/><path class="cls-2" d="M568.1,652.65c-5.77.35-10.68.13-15.45-1.38a26.13,26.13,0,0,1-17.58-17.16c-5.9-17.19-.3-33.13,15.44-40.64a37.29,37.29,0,0,1,43,7.75c8.49,9,9.71,24.57,2.88,35.91-1.08,1.78-2.5,3.35-3.65,5.08-5,7.51-12,10.92-21,10.45C570.28,652.58,568.78,652.65,568.1,652.65Zm-26.61-29.88c0,1.05,0,2.1,0,3.14-.67,12.82,11.14,25,24.7,23.65,1.63-.15,3.28-.16,4.92-.28A21.43,21.43,0,0,0,588,639.56c6.35-9.46,6.38-20.08,2.41-30-5.87-14.7-14.07-17-25.67-16.1-9.44.74-16.25,5.2-20.55,13.66C541.64,612.06,541.31,617.37,541.49,622.77Z"/><path class="cls-2" d="M730.29,592.75c1.13-1.31,2.08-1,2.93-1,7.32,0,14.66.07,22-.09,7-.16,11.3,3.68,13.78,9.54,2.63,6.18,2.07,12.3-2.49,17.63a19,19,0,0,1-5.64,4.39c-2,1-2.39,2.38-1.1,4.35a151.17,151.17,0,0,0,15,18.4,10.63,10.63,0,0,0,5.74,3.3,4.93,4.93,0,0,1,3.34,1.78c-1.28,1.52-3,1.45-4.71,1.35a20.38,20.38,0,0,1-15.59-8.53c-4.31-5.74-8.69-11.41-13.43-16.79-1.43-1.64-3-3.17-4.66-4.92,2-1.55,4-1,5.82-1.19,6.13-.69,9.9-4.3,11.54-9.81s-.49-10.33-4.44-14.26a9.09,9.09,0,0,0-6.1-2.49c-2.24-.09-4.48-.2-6.72-.13-3.76.11-5,1.29-5.28,5.16-.18,3,0,6,0,9,.11,10.92.3,21.83.29,32.75,0,3.65.19,7.12,3.59,10.43h-14.1c4-2.82,3.92-6.85,3.89-11q-.13-19.29,0-38.59C734,598.44,733.21,595.26,730.29,592.75Z"/><path class="cls-4" d="M358.73,605.13a60,60,0,0,0-4.47-4.94c-8-7-17.16-10.15-27.76-7.17-13.34,3.76-21.71,17.14-19.93,31.69a32.22,32.22,0,0,0,3.21,11.13,24.61,24.61,0,0,0,17.54,13.35,35.14,35.14,0,0,0,25.14-3.58,6.93,6.93,0,0,0,3.86-5.63,64.64,64.64,0,0,0,.07-11.64c-.23-2.92-1.95-4.48-4.51-5.76h15c-3.27,1.64-4.14,4.29-3.94,7.47.12,1.93.09,3.88.34,5.8a10,10,0,0,1-4.14,9.79,34.87,34.87,0,0,1-16,6.62c-9.49,1.61-18.8,1-27.54-3.32-11.72-5.82-16.79-15.75-16.6-28.46.18-12.39,5.59-21.81,17-27.25,12.89-6.13,25.83-5,38.65.18C359,595.14,359.8,597.68,358.73,605.13Z"/><path class="cls-2" d="M719,652a129.79,129.79,0,0,1-14.75.07c1.45-6.31,1.44-6.3-1.12-12.32-.64-1.5-1.12-3.07-1.7-4.61-1.24-3.3-2.42-4.3-6-4.2-5.82.15-11.64.33-17.46.05a4,4,0,0,0-4.22,2.64c-1.64,3.84-3.23,7.7-4.81,11.57a5.54,5.54,0,0,0,0,3.51c.8,3.26.62,3.56-2.72,3.72-3,.15-5.91,0-8.74,0-.64-1.65.58-1.85,1.18-2.29,4.14-3,5.52-7.73,7.42-12,6.46-14.6,13.21-29.07,20.09-43.48.19-.4.36-.82.59-1.21,1.12-1.9,2.14-2,3.17-.06,2.33,4.5,4.59,9.06,6.57,13.72,5.42,12.78,11.35,25.33,17,38C714.7,647.83,717.4,649.15,719,652Zm-31.74-48.15a4.51,4.51,0,0,0-.92.88c-3.81,6.13-5.78,13.11-9,19.53-1.26,2.52.17,4.26,3.17,4.27,4.63,0,9.27-.1,13.9-.3,3.2-.14,3.7-.9,2.48-3.88-2.48-6.08-5.08-12.11-7.68-18.15C688.84,605.26,688.52,604.18,687.28,603.83Z"/><path class="cls-4" d="M467.76,606.85c-2.14-1.22-2.67-2.69-3.55-3.83-10.57-13.68-26.88-13.63-38.87-5.78-7.48,4.89-10.37,12.46-11.19,21a33.73,33.73,0,0,0,1.1,12c2.95,11.1,11.89,18.61,23.47,19.79a34.5,34.5,0,0,0,12-.84c5.12-1.28,9.41-3.66,12.42-8.15,1.63-2.44,3.51-4.72,5.73-7.67,1.09,4.8.27,8.22-2.92,11.08a32.89,32.89,0,0,1-22,8.69,50.22,50.22,0,0,1-17.2-2.6c-13.18-4.52-21-16.43-20.39-31a30.68,30.68,0,0,1,23.1-28.66,52.06,52.06,0,0,1,30.88,1.58c3.71,1.35,6.22,3.25,6.24,7.62C466.59,602.16,467.27,604.21,467.76,606.85Z"/><path class="cls-2" d="M489.12,638.13a79.89,79.89,0,0,0,3.94,7.17c5.3,7.53,17.8,6.51,21.72-1.69a9.78,9.78,0,0,0-2.21-11.84c-5.63-5.14-11.32-10.22-17.18-15.1a15.43,15.43,0,0,1-3.79-19.73,10.94,10.94,0,0,1,5.31-4.63c5.88-2.5,12-2.31,18.09-1.47a3,3,0,0,1,2.81,3.4c-.09,1.31.14,2.68-.52,4.1-1.95.07-2.61-1.77-3.82-2.66-4.71-3.46-12-3-16,1.16s-4.08,8.94.15,13a193.48,193.48,0,0,0,16.67,14.26c8,6.15,9.48,14.16,4.35,22.9a9.16,9.16,0,0,1-4.52,4.1c-7.92,3.24-15.75,2.66-23.52-.6a3.42,3.42,0,0,1-2.31-3A24.69,24.69,0,0,1,489.12,638.13Z"/><path class="cls-2" d="M611.75,592.65c4.51-1.44,8.49-.8,13.07-.75-4.35,4.92-3,10.54-3.05,15.88-.13,11.52,0,23.05,0,34.57a35.58,35.58,0,0,0,.1,3.58c.19,1.86,1.16,3.18,3.12,3.18,5.22,0,10.47.49,15.65-.74,2.84-.68,5.07-2.4,7.31-4.21,1.86,4.27,1,6.52-2.82,7.8a9.78,9.78,0,0,1-3.07.51q-13,0-26-.09c-3,0-3.57-.8-2.06-3.44a9.72,9.72,0,0,0,1.08-5.15c0-14.81,0-29.63,0-44.44C615,596.75,614.8,594.33,611.75,592.65Z"/><path class="cls-4" d="M394.05,651.79H377c5.26-2.3,5.6-6,5.58-10q-.09-20.82,0-41.65c0-3.78-.54-7.19-5.35-9.31h18.19c-.44,1.26-1.51,1-2.24,1.32a5.54,5.54,0,0,0-3.7,5.55c0,3,0,6,0,9,0,11.8.1,23.59-.06,35.39C389.38,646.15,390.19,649.44,394.05,651.79Z"/><path class="cls-1" d="M160.58,502.68l.21,2.16c-1.31,4.14-5,6.51-7.14,10l-.77-.49Z"/><path class="cls-1" d="M161.45,501.49a1.2,1.2,0,0,1-.9,1.23A1.57,1.57,0,0,1,161.45,501.49Z"/><path class="cls-5" d="M471.06,520.74c-9.19.64-19.13-1.18-29.15-1-3.51.08-7.06-1-10.66-.79-1.9.1-3-1.24-4.06-2.47Q421,509.42,415,502.23q-8.5-10.1-16.94-20.22c-6.38-7.67-12.72-15.38-19.1-23.06q-8.15-9.79-16.36-19.53c-5.48-6.49-11-12.92-16.5-19.42-4-4.78-7.82-9.78-12-14.41-5-5.54-9.37-11.59-14.2-17.27q-4.33-5.11-8.68-10.22c-1.94-2.26-3.93-4.48-5.82-6.79-1.17-1.42-.85-2.1.94-2.31,3.33-.38,6.52.71,9.75,1.15,9.12,1.25,18.2,2.83,27.3,4.27s18.16,3.19,27.31,4.18c7.4.81,14.63,2.66,22.08,3.11a62.53,62.53,0,0,1,12.32,2c3.37.9,6.8.6,10.19,1.26A17.29,17.29,0,0,1,426,391.65c8.21,10.61,16.81,20.89,25.21,31.33,7.1,8.83,14,17.8,21,26.69Q483.58,464,495,478.38c5,6.3,10,12.63,15,18.92q6.69,8.38,13.47,16.7c1.81,2.21,4.49,4.85,3.2,7.33-1.39,2.66-5.21,1.49-7.79.93-3.59-.78-7.14-.44-10.7-.53-5.84-.16-11.73.43-17.49-.22C484.39,520.8,478.14,521,471.06,520.74Z"/><path class="cls-5" d="M632.47,524.37c-8.07-1.89-16.34-.54-24.51-1.55-7.08-.87-14.41.39-21.5-.41-8.92-1-17.91.15-26.75-1.53a10.08,10.08,0,0,0-2.69-.07c-5.69.49-11.27-1.25-16.95-.91-1.9.11-3.05-1.12-4.07-2.42-6.09-7.71-12.07-15.51-18.21-23.18-7.09-8.83-14.33-17.54-21.48-26.31q-9-11.08-18-22.2-10.12-12.5-20.23-25c-5.51-6.84-10.94-13.75-16.48-20.58-2.53-3.12-5.25-6.09-7.85-9.17-.75-.89-1.72-1.88-1.05-3.16.57-1.1,1.79-.8,2.82-.92,2.89-.31,5.64.65,8.4,1.11,8.51,1.42,17.08,2.32,25.6,3.58,5.28.77,10.49,2.09,15.8,2.84,7.35,1,14.69,2.19,22,3.32,1.47.22,2.91.58,4.38.84,8.33,1.5,16.7,2.82,25.13,3.7a12.45,12.45,0,0,1,7,3.65c3.67,3.34,6.62,7.3,9.79,11.06,6.24,7.4,12.25,15,18.34,22.51s12.14,15.09,18.31,22.55c5.31,6.43,10.81,12.71,16.16,19.11,7.94,9.48,15.82,19,23.73,28.52,2.48,3,4.95,6,7.43,8.93a9.2,9.2,0,0,1,1.17,1.35c.61,1.13,1.9,2.22,1,3.63-.75,1.21-2.18.65-3.32.71C635.16,524.43,633.81,524.37,632.47,524.37Z"/><path class="cls-5" d="M730.54,528.46c-9.64-1-18.87-1.1-28-2.09-5-.54-10.16-.2-15.24-.19a101.9,101.9,0,0,1-19.55-1.53c-4.34-.82-9-.4-13.43-.22a7.49,7.49,0,0,1-6.64-2.87c-4.8-5.88-9.69-11.69-14.49-17.57q-11-13.5-22-27c-6.46-8-12.86-16-19.3-24q-10.64-13.23-21.3-26.42c-4.59-5.66-9.3-11.24-13.81-17-.82-1-2.6-2.25-1.47-3.85,1-1.37,2.8-.84,4.18-.5,12.86,3.17,26.09,4.18,39.08,6.69,17.77,3.44,35.84,5.28,53.59,9a38.45,38.45,0,0,0,9.74,1.2c3.44-.15,5.76,1.94,7.6,4.71,7.81,11.8,15.71,23.55,23.52,35.36q18,27.21,36,54.46c1.72,2.61,3.49,5.19,5.18,7.82s1.53,3.09-1.48,3.62C731.8,528.2,730.93,528.39,730.54,528.46Z"/></g></g></svg>