<svg xmlns="http://www.w3.org/2000/svg" viewBox="0 0 652.76 429"><defs><style>.cls-1{fill:#39837d;}.cls-2{fill:#ac9a52;}</style></defs><title>icon</title><g id="Layer_2" data-name="Layer 2"><g id="Layer_1-2" data-name="Layer 1"><path class="cls-1" d="M0,395.19c8-12.55,15.4-24.16,22.78-35.8q31-48.9,62-97.82c13.2-20.81,26.47-41.56,39.6-62.4,1.67-2.64,3.57-3.57,6.62-3q42,7.58,84,15Q287.26,224,359.54,236.75c4.92.86,6.63,2.77,6.57,7.78-.23,20.32-.1,40.64-.09,61,0,7.33,0,7.33,7.56,7.32,3,0,6-.18,9,.05,4.23.32,5.75-1.6,5.41-5.6-.15-1.82,0-3.66,0-5.49q0-55.47,0-110.92c0-8.57.19-8.75,8.56-8.76q24.74,0,49.47,0c8.12,0,8.11,0,8.11,8.38,0,17.82.13,35.64-.06,53.46-.05,4.49,1.28,6.41,6,7.13,26.64,4.09,53.23,8.56,79.84,12.83a8.27,8.27,0,0,1,6,3.89q46.95,69.83,94,139.56c3.72,5.52,7.51,11,11.2,16.54.78,1.17,2.34,2.35,1.4,3.95s-2.68,1-4.13,1.08c-.66.05-1.33,0-2,0q-166.62,0-333.24.09c-5.16,0-8.52-1.62-11.82-5.66Q256.92,369,212.14,315q-37-44.82-74.22-89.56c-2.49-3-3.64-3-6.17.27Q86.44,285,40.79,344.06q-18.4,23.94-36.68,48A6.45,6.45,0,0,1,0,395.19Z"/><path class="cls-2" d="M399.92,162.18c-8,0-16-.16-24,.06-6.06.16-6.67,1.18-7.06,7.07-.9,13.61-1.94,27.2-3,40.79-.36,4.55-2.43,5.69-7.86,4.62-10.6-2.09-21.18-4.28-31.8-6.29-20.25-3.86-40.52-7.62-60.78-11.42q-36.26-6.81-72.5-13.63c-20.72-3.89-41.47-7.65-62.16-11.73-4.67-.92-8.09,0-11,3.73-6.77,8.88-12.39,18.52-18.53,27.82-10.52,16-20.9,32-31.33,48-4.63,7.11-9.23,14.25-13.91,21.32-1,1.48-1.89,3.61-4,3.4s-2.37-2.48-3.06-4.15c-11.88-28.72-15.36-58.8-13.6-89.49.69-12.21,3.39-24.28,6.43-36.24A181.65,181.65,0,0,1,64.43,93.84c19.17-30.39,44.42-54.4,76.42-71.26C173.35,5.44,208-1.31,244.39.21c25,1,48.81,7.19,71.66,17.58a190.23,190.23,0,0,1,55.29,37.73C388,71.91,401.93,90.4,411.93,111.76a212.4,212.4,0,0,1,15.27,44.68c1.15,5.23.06,6.07-5.3,5.95-7.33-.18-14.65,0-22,0Z"/></g></g></svg>