<?xml version="1.0" encoding="utf-8"?>
<!-- Generator: Adobe Illustrator 24.0.1, SVG Export Plug-In . SVG Version: 6.00 Build 0)  -->
<svg version="1.1" id="Layer_1" xmlns="http://www.w3.org/2000/svg" xmlns:xlink="http://www.w3.org/1999/xlink" x="0px" y="0px"
	 viewBox="0 0 649.7 624.5" style="enable-background:new 0 0 649.7 624.5;" xml:space="preserve">
<style type="text/css">
	.st0{fill:#F0F0F0;}
	.st1{fill:#FFFFFF;}
	.st2{fill:#E4E4E4;}
	.st3{fill:#2F3192;}
	.st4{fill:#CACACA;}
	.st5{fill:#FFB6B6;}
	.st6{fill:#2F2E41;}
</style>
<path class="st0" d="M491,332c23.2-13.6,54.1-16.4,76.5-1.5c-27.9,8.7-51.8,27-67.5,51.7c-6,9.5-11.7,20.8-22.4,24.3
	c-6.7,2.2-14.1,0.8-20.4-2.2c-6.3-3-11.7-7.6-17.1-12.2l-1.7-0.4C451.3,368.2,467.8,345.6,491,332z"/>
<path class="st1" d="M567.3,331.1c-22.2-1.7-44.3,3.7-63.3,15.3c-4.1,2.4-7.8,5.5-11,9.1c-3,3.6-4.9,7.9-5.7,12.5
	c-0.8,4.3-1.1,8.8-2.9,12.8c-1.9,4.1-5.5,7.3-9.9,8.6c-5.3,1.8-11,1.5-16.5,1c-6.1-0.5-12.5-1.1-18.4,1.2c-0.7,0.3-1.1-0.8-0.4-1.1
	c10.2-4,21.2,0.5,31.7-1.4c4.9-0.9,9.6-3.2,12-7.8c2.1-4,2.4-8.6,3.2-12.9c0.7-4.5,2.4-8.8,5.1-12.5c3-3.7,6.6-6.9,10.6-9.5
	c9-5.8,18.9-10.2,29.4-13c11.9-3.2,24.2-4.4,36.4-3.5C568.3,330,568,331.1,567.3,331.1L567.3,331.1z"/>
<path class="st1" d="M509.8,342.3c-3.1-7.1-0.7-15.5,5.9-19.7c0.6-0.4,1.3,0.6,0.7,1c-6.1,3.9-8.4,11.7-5.4,18.3
	C511.3,342.6,510.2,342.9,509.8,342.3L509.8,342.3z"/>
<path class="st1" d="M487.4,365.7c7.2,2.9,15.1,2.9,22.3,0.1c0.7-0.3,1.1,0.8,0.4,1.1c-7.5,2.9-15.8,2.8-23.2-0.2
	C486.1,366.5,486.7,365.5,487.4,365.7L487.4,365.7z"/>
<path class="st1" d="M542.7,331.7c0.6,3,2.7,5.4,5.5,6.5c0.7,0.3,0.2,1.3-0.5,1.1c-3.1-1.2-5.4-3.9-6.1-7.2
	c-0.1-0.3,0.1-0.6,0.4-0.8C542.3,331.2,542.6,331.4,542.7,331.7L542.7,331.7z"/>
<path class="st0" d="M576.8,421.1c-0.4-0.2-0.9-0.3-1.4-0.5c-6.1-2.1-12.3-3.7-18.6-4.8c-0.5-0.1-1-0.2-1.5-0.3
	c-15.2-2.5-30.8-2.2-45.9,1c-6,1.3-11.9,3-17.7,5.2c-7.9,3-16.3,6.9-24.6,7.1c-0.9,0-1.7,0-2.6-0.1L438,393.9c0-0.1,0-0.2-0.1-0.3
	l-1.1-1.3c0.3-0.1,0.6-0.3,0.9-0.4c0.2-0.1,0.3-0.1,0.5-0.2c0.1,0,0.2-0.1,0.3-0.1c0,0,0.1,0,0.1,0c0.1-0.1,0.2-0.1,0.3-0.1
	c1.7-0.7,3.4-1.5,5.1-2.2c0,0,0,0,0,0c13-5.4,26.6-9.8,40.4-12c0.4-0.1,0.8-0.1,1.3-0.2c6.2-1,12.5-1.4,18.8-1.3
	c3.5,0.1,6.9,0.3,10.3,0.7c8.9,1,17.5,3.5,25.6,7.2c16.1,7.4,29.7,20,35.9,36.4C576.5,420.3,576.6,420.7,576.8,421.1z"/>
<path class="st1" d="M576.3,421.4c-16.7-14.7-37.6-23.8-59.8-25.9c-4.8-0.5-9.6-0.3-14.3,0.6c-4.5,1.1-8.7,3.4-12.1,6.6
	c-3.2,3-6.1,6.3-10,8.5c-4,2.1-8.8,2.5-13.1,0.9c-5.3-1.8-9.7-5.4-13.8-9.1c-4.6-4.1-9.3-8.4-15.4-10.1c-0.7-0.2-0.4-1.3,0.4-1.1
	c10.5,3,16.6,13.2,26.1,18c4.4,2.2,9.6,3.2,14.2,1c4.1-1.9,7.1-5.4,10.3-8.4c3.2-3.2,7.2-5.6,11.6-6.9c4.6-1.2,9.4-1.6,14.2-1.2
	c10.7,0.8,21.3,3.2,31.3,7.3c11.4,4.6,22,11,31.2,19.2C577.7,421.1,576.8,421.9,576.3,421.4L576.3,421.4z"/>
<path class="st1" d="M523.7,395.7c1.8-7.6,8.8-12.7,16.6-12.2c0.3,0,0.6,0.3,0.5,0.6c0,0.3-0.3,0.5-0.6,0.5
	c-7.2-0.5-13.8,4.3-15.4,11.4C524.6,396.8,523.5,396.5,523.7,395.7z"/>
<path class="st1" d="M491.6,400.9c4,6.6,10.3,11.4,17.7,13.6c0.7,0.2,0.4,1.3-0.4,1.1c-7.7-2.2-14.3-7.3-18.4-14.1
	C490.1,400.8,491.2,400.3,491.6,400.9L491.6,400.9z"/>
<path class="st1" d="M556.3,407.1c-1.3,2.7-1.1,5.9,0.5,8.5c0.4,0.6-0.7,1.2-1.1,0.5c-1.7-2.9-1.9-6.4-0.6-9.4
	c0.1-0.3,0.4-0.5,0.7-0.4C556.2,406.4,556.4,406.8,556.3,407.1z"/>
<path class="st0" d="M39.2,544.5c2.7-26.7,18.7-53.4,43.9-62.6c-9.4,27.7-8.7,57.8,1.9,85c4.1,10.5,9.8,21.7,6.4,32.5
	c-2.1,6.7-7.6,11.9-13.8,15.2c-6.2,3.3-13.1,5-19.9,6.6l-1.3,1.1C44.9,597.9,36.5,571.2,39.2,544.5z"/>
<path class="st1" d="M83.4,482.3c-14.4,16.9-23.2,38-25,60.2c-0.5,4.8-0.2,9.6,0.8,14.3c1.1,4.5,3.5,8.7,6.8,12c3,3.2,6.4,6,8.6,9.9
	c2.2,4,2.6,8.7,1.1,13c-1.7,5.4-5.3,9.8-8.9,14c-4,4.7-8.3,9.4-9.9,15.5c-0.2,0.7-1.3,0.4-1.1-0.3c2.8-10.6,12.9-16.8,17.6-26.4
	c2.2-4.5,3-9.6,0.8-14.2c-2-4-5.5-7-8.6-10.2c-3.3-3.2-5.7-7.1-7.1-11.5c-1.3-4.6-1.7-9.4-1.4-14.2c0.6-10.7,2.9-21.3,6.8-31.4
	c4.4-11.5,10.7-22.1,18.7-31.5C83.1,480.9,83.9,481.8,83.4,482.3z"/>
<path class="st1" d="M58.5,535.3c-7.6-1.7-12.9-8.6-12.5-16.4c0-0.3,0.3-0.6,0.6-0.6c0.3,0,0.6,0.3,0.6,0.6
	c-0.4,7.2,4.5,13.7,11.6,15.2C59.6,534.3,59.3,535.5,58.5,535.3z"/>
<path class="st1" d="M64.3,567.3c6.5-4.1,11.3-10.5,13.3-17.9c0.2-0.7,1.3-0.4,1.1,0.3c-2.1,7.7-7.1,14.4-13.9,18.6
	C64.2,568.8,63.6,567.7,64.3,567.3L64.3,567.3z"/>
<path class="st1" d="M69.4,502.5c2.8,1.2,6,1,8.5-0.6c0.6-0.4,1.2,0.6,0.6,1c-2.8,1.8-6.4,2-9.4,0.7c-0.3-0.1-0.5-0.4-0.4-0.7
	C68.7,502.6,69.1,502.5,69.4,502.5L69.4,502.5z"/>
<path class="st0" d="M161.7,527.7c-0.4,0.3-0.8,0.5-1.2,0.8c-5.3,3.6-10.3,7.7-14.9,12.2c-0.4,0.3-0.7,0.7-1.1,1
	c-11,10.8-19.9,23.6-26.3,37.7c-2.5,5.6-4.6,11.4-6.3,17.3c-2.3,8.2-4.1,17.2-8.8,24c-0.5,0.7-1,1.4-1.6,2l-43.8,1
	c-0.1,0-0.2-0.1-0.3-0.1l-1.7,0.1c0.1-0.3,0.1-0.6,0.2-0.9c0-0.2,0.1-0.4,0.1-0.5c0-0.1,0.1-0.2,0.1-0.4c0,0,0-0.1,0-0.1
	c0-0.1,0-0.2,0.1-0.3c0.4-1.8,0.8-3.6,1.2-5.4c0,0,0,0,0,0c3.3-13.7,7.7-27.3,14.1-39.7c0.2-0.4,0.4-0.8,0.6-1.1
	c2.9-5.6,6.3-10.9,10-16c2.1-2.8,4.3-5.4,6.6-7.9c6.1-6.5,13.1-12.1,20.9-16.4c15.5-8.6,33.7-12.2,50.6-7.5
	C160.8,527.5,161.3,527.6,161.7,527.7z"/>
<path class="st1" d="M161.6,528.3c-21.7,4.8-41.4,16.4-56.2,33c-3.2,3.5-5.9,7.5-7.9,11.9c-1.8,4.3-2.4,9-1.8,13.6
	c0.5,4.3,1.5,8.7,0.9,13.1c-0.6,4.5-3.2,8.5-7,11.1c-4.6,3.2-10.1,4.6-15.5,5.8c-6,1.3-12.3,2.5-17.2,6.4c-0.6,0.5-1.3-0.5-0.7-1
	c8.6-6.8,20.4-5.6,29.9-10.5c4.4-2.3,8.2-5.9,9.2-10.9c0.9-4.4-0.2-8.9-0.7-13.3c-0.7-4.5-0.2-9.1,1.3-13.4
	c1.8-4.4,4.3-8.6,7.4-12.2c7-8.2,15.2-15.3,24.3-21c10.4-6.5,21.9-11.2,33.9-13.9C162.2,527,162.3,528.1,161.6,528.3L161.6,528.3z"
	/>
<path class="st1" d="M109.9,555.7c-5.1-5.9-5.1-14.6-0.1-20.6c0.5-0.6,1.4,0.2,0.9,0.7c-4.7,5.5-4.6,13.7,0.1,19.1
	C111.3,555.5,110.4,556.2,109.9,555.7L109.9,555.7z"/>
<path class="st1" d="M95.2,584.7c7.7,0.7,15.3-1.6,21.4-6.3c0.6-0.5,1.3,0.5,0.7,1c-6.3,4.9-14.3,7.2-22.3,6.5
	C94.2,585.8,94.4,584.6,95.2,584.7L95.2,584.7z"/>
<path class="st1" d="M138.3,536c1.5,2.6,4.2,4.4,7.2,4.6c0.8,0.1,0.6,1.2-0.2,1.2c-3.3-0.3-6.3-2.2-7.9-5.1
	c-0.2-0.3-0.1-0.6,0.1-0.8C137.7,535.7,138.1,535.8,138.3,536L138.3,536z"/>
<g id="a319387a-1074-4617-a9d7-8c11a1aba957">
	<path id="a64f6941-3d46-45f6-b9a5-e3f4c7441463-928" class="st2" d="M376.9,73.5L141,50.3c-2.7-0.3-5.4-1.1-7.7-2.5
		c-2.4-1.4-4.6-3.3-6.4-5.5c-3.8-4.7-6-10.6-6-16.6c0-1.5,0.1-3,0.4-4.4c0.3-1.4,0.6-2.8,1.2-4.1c0.5-1.3,1.1-2.5,1.9-3.6
		c0.7-1.1,1.6-2.2,2.5-3.1c0.9-0.9,2-1.7,3.1-2.4c2.2-1.3,4.6-2.2,7.2-2.4c1.3-0.1,2.6-0.1,3.9,0.1l235.9,31.9c1.8,0.3,3.5,1,5,2.1
		c1.6,1.2,3,2.7,4,4.4c1.2,1.9,2.1,3.9,2.7,6c0.7,2.3,1,4.6,1,7c0,1.2-0.1,2.3-0.2,3.5c-0.2,1.1-0.4,2.2-0.7,3.2
		c-0.3,1-0.7,2-1.2,2.9c-0.4,0.9-1,1.7-1.6,2.5c-0.6,0.7-1.2,1.4-1.9,2c-0.7,0.6-1.4,1-2.2,1.4C380.3,73.4,378.6,73.7,376.9,73.5
		L376.9,73.5z"/>
	<path id="f573f903-41a4-475b-90ae-b1e8d0598757-929" class="st3" d="M272.1,63.2L141,50.3c-2.7-0.3-5.4-1.1-7.7-2.5
		c-2.4-1.4-4.6-3.3-6.4-5.5c-3.8-4.7-6-10.6-6-16.6c0-1.5,0.1-3,0.4-4.4c0.3-1.4,0.6-2.8,1.2-4.1c0.5-1.3,1.1-2.5,1.9-3.6
		c0.7-1.1,1.6-2.2,2.5-3.1c0.9-0.9,2-1.7,3.1-2.4c2.2-1.3,4.6-2.2,7.2-2.4c1.3-0.1,2.6-0.1,3.9,0.1l131,17.7L272.1,63.2z"/>
	<path id="b9dc6a73-2ff5-489e-a572-426ec7a03266-930" class="st3" d="M271.7,66.1c-0.6-0.1-1.2-0.3-1.7-0.6c-0.5-0.3-1-0.8-1.4-1.3
		c-0.4-0.6-0.7-1.2-0.9-1.8c-0.2-0.7-0.3-1.4-0.3-2.2V25.3c0-0.7,0.1-1.4,0.3-2.1c0.2-0.6,0.5-1.1,0.9-1.6c0.4-0.4,0.9-0.8,1.4-1
		c0.5-0.2,1.1-0.3,1.7-0.2c0.6,0.1,1.2,0.3,1.7,0.7c0.5,0.4,1,0.8,1.4,1.4c0.4,0.6,0.7,1.2,0.9,1.9c0.2,0.7,0.3,1.4,0.3,2.2v34.6
		c0,0.7-0.1,1.4-0.3,2.1c-0.2,0.6-0.5,1.2-0.9,1.7c-0.4,0.4-0.8,0.8-1.4,1C272.9,66.1,272.3,66.2,271.7,66.1z"/>
	<path id="b44bc342-b83f-44d8-9fe9-a8f7383873d1-931" class="st4" d="M62.1,37.5c-0.2,0-0.5-0.1-0.7-0.1c-0.2-0.1-0.5-0.1-0.7-0.2
		c-0.2-0.1-0.5-0.2-0.7-0.3c-0.2-0.1-0.4-0.3-0.6-0.4c-1.3-0.9-2.2-2.2-2.5-3.7c-0.1-0.5-0.2-1-0.2-1.5V5.1c0-0.5,0.1-1,0.2-1.5
		c0.1-0.5,0.3-0.9,0.5-1.3c0.5-0.8,1.2-1.4,2-1.8c0.4-0.2,0.9-0.3,1.3-0.4C61.2,0,61.6,0,62.1,0c0.5,0.1,0.9,0.2,1.4,0.4
		c0.5,0.2,0.9,0.4,1.3,0.8l20.9,15.5c0.4,0.3,0.7,0.6,1,0.9c0.6,0.7,1.1,1.5,1.3,2.4c0.1,0.4,0.2,0.9,0.2,1.4c0,0,0,0.1,0,0.1
		c0,0,0,0.1,0,0.1v0.2c0,0.5-0.1,1-0.2,1.4c-0.1,0.4-0.3,0.9-0.5,1.3c-0.2,0.4-0.5,0.7-0.8,1.1c-0.3,0.3-0.7,0.6-1.1,0.8L64.8,37
		c-0.2,0.1-0.4,0.2-0.6,0.3c-0.2,0.1-0.4,0.1-0.7,0.2c-0.2,0-0.5,0.1-0.7,0.1C62.6,37.6,62.3,37.5,62.1,37.5z"/>
</g>
<g id="ed5e4939-ca06-4842-8bf9-38ff7399ab22">
	<path id="ad4c3588-958a-44e3-8958-86383ba49959-932" class="st2" d="M377,187.4l-235.9,4.4c-2.7,0-5.3-0.5-7.7-1.6
		c-2.4-1.1-4.6-2.7-6.4-4.7c-1.9-2.1-3.4-4.5-4.4-7.1c-2.1-5.7-2.1-11.9,0-17.6c1-2.6,2.5-5.1,4.4-7.1c1.8-2,4-3.6,6.4-4.7
		c2.4-1.1,5.1-1.7,7.7-1.6l235.9,4.3c1.8,0,3.5,0.6,5,1.5c1.6,1,3,2.3,4,3.9c1.2,1.7,2.1,3.6,2.7,5.7c1.3,4.5,1.3,9.3,0,13.8
		c-0.6,2-1.5,3.9-2.7,5.7c-1.1,1.6-2.4,2.9-4,3.9C380.4,186.9,378.7,187.4,377,187.4z"/>
	<path id="b33bc1e4-6ad7-49be-b233-6aeb4dd08a7d-933" class="st3" d="M233.3,190.2l-92.2,1.7c-2.7,0-5.3-0.5-7.7-1.6
		c-2.4-1.1-4.6-2.7-6.4-4.7c-1.9-2.1-3.4-4.5-4.4-7.1c-1.1-2.8-1.6-5.8-1.6-8.8c0-1.5,0.1-3,0.4-4.5c0.3-1.4,0.6-2.8,1.2-4.2
		c0.5-1.3,1.1-2.6,1.9-3.9c0.7-1.2,1.6-2.4,2.5-3.4c0.9-1,2-2,3.1-2.8c1.1-0.8,2.2-1.5,3.5-2c2.4-1.1,5-1.6,7.6-1.6l92.2,1.7
		L233.3,190.2z"/>
	<path id="f48897ce-ac32-418c-8d3c-67ca4382e4e0-934" class="st3" d="M234.4,192.8c-0.6,0-1.3-0.1-1.8-0.4c-0.6-0.3-1.1-0.7-1.5-1.2
		c-0.4-0.5-0.8-1.1-1-1.8c-0.2-0.7-0.4-1.5-0.4-2.2v-36.1c0-0.8,0.1-1.5,0.4-2.2c0.2-0.7,0.6-1.3,1-1.8c0.4-0.5,0.9-0.9,1.5-1.2
		c0.6-0.3,1.2-0.4,1.8-0.4c0.6,0,1.3,0.2,1.8,0.5c0.6,0.3,1.1,0.7,1.5,1.2c0.4,0.5,0.8,1.2,1,1.8c0.2,0.7,0.4,1.5,0.4,2.2V187
		c0,0.8-0.1,1.5-0.4,2.2c-0.2,0.7-0.6,1.3-1,1.8c-0.4,0.5-0.9,0.9-1.5,1.2C235.6,192.6,235,192.7,234.4,192.8z"/>
	<path id="b8c06ef9-eeb4-4e99-947d-47e1efa9800c-935" class="st4" d="M62.2,188.4c-0.5,0-0.9-0.1-1.4-0.2c-0.2-0.1-0.5-0.1-0.7-0.2
		c-0.2-0.1-0.4-0.2-0.6-0.3c-0.4-0.2-0.8-0.6-1.1-0.9c-0.3-0.3-0.6-0.7-0.9-1.2c-0.2-0.4-0.4-0.9-0.5-1.4c-0.1-0.5-0.2-1-0.2-1.5
		v-26.2c0-0.5,0.1-1,0.2-1.5c0.1-0.5,0.3-0.9,0.5-1.4c0.5-0.9,1.2-1.6,2-2.1c0.4-0.2,0.9-0.4,1.3-0.6c0.9-0.2,1.9-0.2,2.8,0
		c0.5,0.1,0.9,0.3,1.3,0.6l20.9,13.1l0.1,0l0.1,0l0.1,0l0.1,0.1c0.3,0.2,0.6,0.5,0.9,0.8c0.3,0.3,0.5,0.7,0.7,1
		c0.2,0.4,0.4,0.8,0.5,1.2c0.1,0.4,0.2,0.8,0.2,1.3v0.4c0,0.5-0.1,1-0.2,1.5c-0.1,0.5-0.3,0.9-0.5,1.3c-0.2,0.4-0.5,0.8-0.8,1.1
		c-0.3,0.3-0.7,0.6-1.1,0.9l-20.9,13.1c-0.2,0.1-0.4,0.2-0.6,0.3c-0.2,0.1-0.4,0.2-0.7,0.3c-0.2,0.1-0.5,0.1-0.7,0.2
		C62.6,188.3,62.4,188.4,62.2,188.4z"/>
</g>
<path id="b462dce5-9b01-4b3d-8b91-2a1db41ed251-936" class="st2" d="M376.9,301L141,333c-5.2,0.7-10.4-1-14.2-4.7
	c-1.9-1.9-3.4-4.1-4.4-6.6c-1.1-2.7-1.6-5.7-1.6-8.6c0-6.1,2.1-12,6-16.6c1.8-2.2,4-4.1,6.4-5.5c2.4-1.4,5-2.2,7.7-2.5l235.9-23.3
	c1.7-0.2,3.4,0.1,5,0.9c1.6,0.8,3,2,4,3.4c1.2,1.6,2.1,3.4,2.7,5.4c0.7,2.2,1,4.5,1,6.8c0,2.4-0.3,4.7-1,7c-0.6,2.1-1.5,4.1-2.7,6
	c-1.1,1.7-2.4,3.2-4,4.4C380.4,300,378.7,300.7,376.9,301z"/>
<path id="aa3c64d8-5563-4d05-b78c-2abe85ac0fb1-937" class="st3" d="M339.8,306L141,333c-5.2,0.7-10.4-1-14.2-4.7
	c-1.9-1.9-3.4-4.1-4.4-6.6c-1.1-2.7-1.6-5.7-1.6-8.6c0-1.5,0.1-3,0.4-4.5c0.8-4.5,2.7-8.7,5.6-12.2c0.9-1.1,2-2.2,3.1-3.1
	c1.1-0.9,2.2-1.7,3.4-2.4c1.2-0.7,2.4-1.2,3.7-1.6c1.3-0.4,2.6-0.7,3.9-0.8l198.8-19.6L339.8,306z"/>
<path id="b26b52bd-87f8-4a7b-abf9-07c8514958b4-938" class="st4" d="M62.1,338.7c-0.2,0-0.5,0-0.7,0c-0.2,0-0.5,0-0.7-0.1
	c-0.5-0.1-0.9-0.2-1.3-0.4c-0.8-0.4-1.5-1-2-1.8c-0.2-0.4-0.4-0.8-0.5-1.3c-0.1-0.5-0.2-1-0.2-1.5v-26.2c0-0.5,0.1-1,0.2-1.5
	c0.4-1.5,1.3-2.8,2.5-3.7c0.4-0.3,0.9-0.5,1.3-0.7c0.4-0.2,0.9-0.3,1.4-0.3c0.5,0,0.9,0,1.4,0.1c0.5,0.1,0.9,0.2,1.3,0.4l20.9,10.6
	l0.1,0l0.1,0l0.1,0l0.1,0c0.3,0.2,0.6,0.4,0.9,0.7c0.3,0.3,0.5,0.6,0.7,0.9c0.2,0.3,0.4,0.7,0.5,1c0.1,0.4,0.2,0.8,0.2,1.2
	c0,0.1,0,0.1,0,0.2c0,0.1,0,0.1,0,0.2c0,0.1,0,0.1,0,0.2c0,0.1,0,0.1,0,0.2c0,0.5-0.1,1-0.2,1.5c-0.2,1-0.7,1.9-1.3,2.6
	c-0.3,0.4-0.7,0.7-1.1,1l-20.9,15.5c-0.2,0.2-0.4,0.3-0.6,0.4c-0.2,0.1-0.4,0.2-0.7,0.3c-0.2,0.1-0.5,0.2-0.7,0.2
	C62.6,338.6,62.3,338.7,62.1,338.7z"/>
<path class="st5" d="M338.4,279.3c5.5-0.8,10.6,3,11.4,8.5c0.1,0.6,0.1,1.2,0.1,1.8l33.3,12.8l-15.1,10.8l-29.4-13.8
	c-5.6-0.6-9.6-5.5-9.1-11.1C330.2,283.6,333.8,279.9,338.4,279.3L338.4,279.3z"/>
<path class="st3" d="M465,273l5.6,10.3c-1.4,6.5-4.9,12.4-10,16.6c-8.6,7.3-53.8,34.4-53.8,34.4l-57-28.6l10-13.3l44.8,15l25.3-23.8
	L465,273z"/>
<rect x="482" y="432.7" transform="matrix(0.9827 -0.1852 0.1852 0.9827 -89.5114 98.9528)" class="st4" width="6" height="192"/>
<rect x="336.2" y="525.7" transform="matrix(0.1852 -0.9827 0.9827 0.1852 -167.3672 855.558)" class="st4" width="192" height="6"/>
<ellipse class="st4" cx="454.5" cy="428.2" rx="44.5" ry="14.5"/>
<polygon class="st5" points="360,611.7 347.7,611.7 341.9,564.4 360,564.4 "/>
<path class="st6" d="M363.1,623.6l-39.5,0v-0.5c0-8.5,6.9-15.4,15.4-15.4h0l24.1,0L363.1,623.6z"/>
<polygon class="st5" points="419.5,547.4 408.8,553.3 380.7,514.9 396.5,506.1 "/>
<path class="st6" d="M428,556.2l-34.5,19.2l-0.2-0.4c-4.1-7.4-1.5-16.8,5.9-20.9l0,0l21.1-11.8L428,556.2z"/>
<path class="st6" d="M489.2,392.7c0,0,5.9,18.4-30.5,41.7l-47,46.8L362.8,598l-29-13l44.6-118.9l26.1-45.6l0.8-24.8l6.4-17.5
	l46.5-16.5L489.2,392.7z"/>
<path class="st6" d="M393.8,546.6l-48.5-73.1c-4.6-6.9-3.6-16.2,2.3-22l49.1-48l8.3-8.3h18.6l-8.7,32.2l-30.3,34.3l35,62
	L393.8,546.6z"/>
<path class="st3" d="M429.4,292.6l14.6-20.9l33.4-2.7c0,0,28.7,27,23.5,62.6s-10.2,70.6-10.2,70.6s-52-37-79-24L429.4,292.6z"/>
<path class="st5" d="M419.5,401.7c1-5.5,6.2-9.1,11.7-8.1c0.6,0.1,1.2,0.3,1.7,0.5l22.7-27.6l5.5,17.7l-22.4,23.5
	c-2.3,5.1-8.3,7.4-13.4,5.1C421,410.8,418.6,406.3,419.5,401.7z"/>
<path class="st3" d="M448,399.9l-10-14.4l28.4-37.8l-14.6-31.3l1.1-37.2l12.1-2.2l0.1,0.1c5.9,3.4,10.4,8.7,12.9,15
	c3,7.5,9.7,35.8,13.5,52c1.5,6.4-0.4,13.1-5.1,17.7L448,399.9z"/>
<ellipse transform="matrix(0.511 -0.8596 0.8596 0.511 14.1697 508.1683)" class="st5" cx="453.7" cy="241.6" rx="23" ry="23"/>
<path class="st6" d="M468.4,233.4c-0.2,3.3,2.9,15.7,2.9,15.7c2.3-3.9-1.3,9-1.3,9c37.7-26.3,7.9-52.7-3.7-50.4c0.2-3.3-9.3-2-9.3-2
	c-3.6-5.6-11.6,1.8-11.6,1.8l1.5-2.6c-6.2,1.6-12.3,20.6-12.3,20.6C436.8,233.7,468.7,230,468.4,233.4z"/>
<path id="ac880d58-80e8-403c-adcc-ec282a435c95-939" class="st3" d="M338.9,308.5c-0.5,0.1-1,0-1.5-0.2c-0.5-0.2-0.9-0.5-1.2-0.9
	c-0.4-0.5-0.7-1-0.8-1.5c-0.2-0.6-0.3-1.3-0.3-2v-32.7c0-0.7,0.1-1.4,0.3-2c0.2-0.6,0.5-1.2,0.8-1.7c0.3-0.5,0.7-0.9,1.2-1.2
	c0.4-0.3,1-0.5,1.5-0.5c0.5,0,1,0,1.5,0.3c0.5,0.2,0.9,0.6,1.2,1c0.4,0.5,0.6,1,0.8,1.6c0.2,0.6,0.3,1.3,0.3,2v32.4
	c0,0.7-0.1,1.4-0.3,2c-0.2,0.6-0.5,1.2-0.8,1.7c-0.3,0.5-0.7,0.9-1.2,1.3C340,308.2,339.5,308.5,338.9,308.5z"/>
<path class="st4" d="M648.5,624.5H1.2c-0.7,0-1.2-0.5-1.2-1.2c0-0.7,0.5-1.2,1.2-1.2h647.3c0.7,0,1.2,0.5,1.2,1.2
	C649.7,624,649.1,624.5,648.5,624.5z"/>
</svg>
