<?xml version="1.0" encoding="utf-8"?>
<!-- Generator: Adobe Illustrator 24.0.1, SVG Export Plug-In . SVG Version: 6.00 Build 0)  -->
<svg version="1.1" id="Layer_1" xmlns="http://www.w3.org/2000/svg" xmlns:xlink="http://www.w3.org/1999/xlink" x="0px" y="0px"
	 viewBox="0 0 800.5 631.9" style="enable-background:new 0 0 800.5 631.9;" xml:space="preserve">
<style type="text/css">
	.st0{fill:#FFB9B9;}
	.st1{fill:#2F3192;}
	.st2{fill:#FFFFFF;}
	.st3{fill:#E6E6E6;}
	.st4{fill:#2F2E41;}
	.st5{fill:#FFB8B8;}
	.st6{fill:none;stroke:#FFFFFF;stroke-width:2;stroke-miterlimit:10;stroke-dasharray:12;}
</style>
<path class="st0" d="M666.4,494.9l-36.7-34.3l-17.4-16.1c-5.7-5.3-6.1-14.2-0.8-20c1-1.1,2.2-2,3.5-2.8l0,0
	c6.8-3.8,15.4-1.4,19.2,5.5c0.2,0.4,0.4,0.8,0.6,1.2l5.7,13.2l35.6,36.9L666.4,494.9z"/>
<path class="st1" d="M671.2,472.6l-12.9,21.5l52.4,32.1c46.2-33.2,55.3-44,44-96.9l-9-9l-43.5,70.6L671.2,472.6z"/>
<path class="st1" d="M595.1,412.8c-1.1-1.1-2.7-1.2-4-0.4l-24.3,15.8c-1.5,1-1.9,2.9-0.9,4.4c0.1,0.2,0.3,0.4,0.4,0.5l61.7,61.4
	c1.2,1.2,3.3,1.2,4.5,0c0,0,0,0,0,0l20.2-20.9c1.2-1.3,1.2-3.3-0.1-4.5L595.1,412.8z"/>
<path class="st2" d="M571.7,429.9l2.5-1.6c-0.6,1.2-0.2,2.6,0.9,3.3c0.8,0.4,1.8,0.4,2.5-0.1l16.2-11.2c1.1-0.7,1.4-2.2,0.6-3.3
	c-0.3-0.4-0.7-0.8-1.3-0.9l1.3-0.8c0.3-0.2,0.8-0.2,1.1,0.1l54.7,53.7c0.3,0.3,0.3,0.9,0,1.2c0,0,0,0,0,0l-19.8,19.3
	c-0.3,0.3-0.9,0.3-1.2,0l-57.7-58.3c-0.3-0.3-0.3-0.9,0-1.2C571.6,430,571.6,430,571.7,429.9z"/>
<polygon class="st1" points="634.8,457.2 618,473 578.1,433.6 598.3,420.4 "/>
<path class="st3" d="M579.7,443.3c0.2-0.2,0.2-0.6,0-0.8l-3.5-3.5c-0.2-0.2-0.6-0.2-0.8,0c-0.2,0.2-0.2,0.6,0,0.8l3.5,3.5
	C579.1,443.6,579.4,443.6,579.7,443.3z"/>
<path class="st3" d="M585.5,448.4l-3.5-3.5c-0.2-0.2-0.6-0.2-0.8,0s-0.2,0.6,0,0.8l0,0l3.5,3.5c0.2,0.2,0.6,0.2,0.8,0
	S585.8,448.6,585.5,448.4z"/>
<circle class="st1" cx="634.4" cy="470.8" r="3.9"/>
<polygon class="st1" points="800.1,609.2 496.4,609.2 496.4,607.1 800.5,607.1 "/>
<polygon class="st1" points="765.4,607.9 765.4,304.1 767.5,304.1 767.5,608.2 "/>
<path class="st3" d="M382.7,598.9l-19.9,5.3l0,0c-5.9,11.6-19.6,16.7-31.6,11.7l-0.4-0.2c-2.6-1.1-5.1-2.6-7.3-4.5
	c-8.4-6.8-22.3-10.3-40.7-11.1c-2.3-0.7-3.9-2.9-3.7-5.4l0,0c0.1-2.6,2.1-4.7,4.7-5l99.6-13L382.7,598.9z"/>
<path class="st4" d="M640.8,616.5c-52.1-8.3-99.5-21.9-139.2-43.9l-123.4,30.3l0.5-27.1l96.5-33.8c16.3-5.7,33.6-7.9,50.8-6.5
	l115,21.3V616.5z"/>
<path class="st3" d="M442.4,627.3L442.4,627.3c-0.8-2.7,0.3-5.6,2.6-7.1l46.7-24.5l11.3-29.4l19.4,12.2l-5.4,21.7l1.3,9
	c1.6,10.9-6,20.9-16.8,22.5c-0.9,0.1-1.9,0.2-2.8,0.2h-50.1C445.6,631.9,443.2,630,442.4,627.3z"/>
<path class="st4" d="M703.6,599.8c-56.4,70.1-95.1-6.2-133.4-87.2l-46.1,75l-28-19.9l48.3-106.3c4.2-9.2,15-13.2,24.1-9
	c1.8,0.8,3.4,1.9,4.8,3.2l67.4,75.1l12.7-0.9L703.6,599.8z"/>
<circle class="st0" cx="706.8" cy="366.1" r="33.5"/>
<path class="st0" d="M749.3,425.7l-37.1,8.1c-3.6-15.3-8.7-30.1-15.4-44.3l34.4-12.7C735.4,393.8,741.5,410.2,749.3,425.7z"/>
<path class="st1" d="M706.8,608.3l-66-77.8l26.9-44.7c2.8-20.1,13.2-35.9,29.2-48.5l10.8-18l32.5-13.6l0,0
	c23.5,18.7,31.6,50.8,19.8,78.4L706.8,608.3z"/>
<path class="st0" d="M649.8,522.5l-39.8-30.7l-18.8-14.4c-6.2-4.7-7.4-13.6-2.7-19.8c0.9-1.2,2-2.2,3.2-3.1l0,0
	c6.4-4.4,15.2-2.8,19.7,3.6c0.3,0.4,0.5,0.8,0.7,1.2l6.9,12.6l38.9,33.5L649.8,522.5z"/>
<path class="st1" d="M652.6,499.9l-10.8,22.6l55.1,27.1c42.9-37.3,66.8-73.2,50.6-124.8l-20.8,5.4l-41.6,85L652.6,499.9z"/>
<circle class="st4" cx="750.2" cy="314.2" r="13.3"/>
<path class="st4" d="M736.5,310.9c0.5-7,6.3-12.5,13.3-12.4c-0.3,0-0.5-0.1-0.8-0.1c-7.3-0.5-13.7,5.1-14.1,12.4
	c-0.5,7.3,5.1,13.7,12.4,14.1c0.3,0,0.6,0,0.8,0C741.1,324.1,736.1,317.9,736.5,310.9z"/>
<path class="st4" d="M736.4,316.6c-11.9-9.9-45.9,2.7-48.1,9.3c-16.1,2.2-28.2,11.6-28.2,28.2v0c9.5,3.9,20.4,3.4,32.2,0
	c18.7,15.3,20,34.4,8.6,56.4l14,0.3l17.4-25.4l0.8,25.7l32.1-0.6v-36.9c0.1-12.3-2.7-24.4-8.2-35.3
	C751.9,328.7,744.1,323,736.4,316.6z"/>
<ellipse class="st5" cx="706.5" cy="372.8" rx="6.4" ry="8.9"/>
<path class="st3" d="M7,0C3.1,0,0,3.1,0,7v296c0,3.9,3.1,7,7,7h434c3.9,0,7-3.1,7-7V7c0-3.9-3.1-7-7-7H7z"/>
<path class="st2" d="M17,10c-3.9,0-7,3.1-7,7v276c0,3.9,3.1,7,7,7h414c3.9,0,7-3.1,7-7V17c0-3.9-3.1-7-7-7H17z"/>
<rect x="95.6" y="194.1" class="st3" width="2" height="6"/>
<rect x="95.6" y="211" class="st3" width="2" height="10.9"/>
<rect x="95.6" y="232.9" class="st3" width="2" height="6"/>
<rect x="290.6" y="110" class="st3" width="2" height="6"/>
<path class="st3" d="M292.6,217.2h-2v-12.7h2V217.2z M292.6,191.9h-2v-12.7h2V191.9z M292.6,166.6h-2V154h2V166.6z M292.6,141.3h-2
	v-12.7h2V141.3z"/>
<rect x="290.6" y="229.9" class="st3" width="2" height="6"/>
<rect x="403.6" y="54" class="st3" width="2" height="6"/>
<path class="st3" d="M405.6,218.5h-2v-11.3h2V218.5z M405.6,195.9h-2v-11.3h2V195.9z M405.6,173.2h-2v-11.3h2V173.2z M405.6,150.6
	h-2v-11.3h2V150.6z M405.6,127.9h-2v-11.3h2V127.9z M405.6,105.3h-2V94h2V105.3z M405.6,82.6h-2V71.3h2V82.6z"/>
<rect x="403.6" y="229.9" class="st3" width="2" height="6"/>
<path class="st1" d="M63,238.4c-4.8-14.4,4.2-29.3,16.3-36.9c15.4-9.7,34.9-6.8,51.1-0.8c31.8,11.8,60.3,39.5,96.7,33
	c7.2-1.2,14-4.1,19.9-8.5c6.1-4.8,10.7-11.2,13.4-18.4c5.8-15,4.4-31.5,5.3-47.2c0.8-14.6,3.7-31.2,15.7-41
	c13.1-10.7,31.8-8.6,47.6-9.7c15.2-0.9,29.9-5.8,42.7-14.1c12.7-8.3,23.1-19.6,30.3-33c1.7-3.2,3.1-6.5,4.4-10
	c0.7-1.8-2.2-2.6-2.9-0.8c-10.6,28.7-38.1,50.6-68.5,54.4c-16.1,2-33.4-0.8-48.5,6.5c-14.2,6.8-20.4,21.6-22.6,36.4
	c-2.4,15.9-0.4,32.1-3.5,47.9c-1.6,7.9-4.5,15.6-9.8,21.7c-5.1,5.6-11.6,9.7-18.9,11.7c-35.7,10.3-66.1-17.9-96.9-30.4
	c-16-6.5-35.2-10.4-51.7-3c-12.8,5.7-23.7,18.6-24.3,33.1c-0.1,3.4,0.4,6.8,1.5,10C60.7,241.1,63.6,240.3,63,238.4L63,238.4z"/>
<path class="st6" d="M42,191.9"/>
<polygon class="st1" points="423,239.9 41,239.9 41,51.1 43,51.1 43,237.9 423,237.9 "/>
</svg>
