<?xml version="1.0" encoding="utf-8"?>
<!-- Generator: Adobe Illustrator 24.0.1, SVG Export Plug-In . SVG Version: 6.00 Build 0)  -->
<svg version="1.1" id="Layer_1" xmlns="http://www.w3.org/2000/svg" xmlns:xlink="http://www.w3.org/1999/xlink" x="0px" y="0px"
	 viewBox="0 0 830.4 674.1" style="enable-background:new 0 0 830.4 674.1;" xml:space="preserve">
<style type="text/css">
	.st0{fill:#CCCCCC;}
	.st1{fill:#2F3192;}
	.st2{fill:#FFFFFF;}
	.st3{fill:#E4E4E4;}
	.st4{opacity:0.999;fill:#E6E6E6;enable-background:new    ;}
	.st5{fill:#E6E6E6;}
	.st6{fill:#FEB8B8;}
	.st7{fill:#A0616A;}
	.st8{fill:#2F2E41;}
	.st9{fill:#F0F0F0;}
	.st10{opacity:5.000000e-02;enable-background:new    ;}
</style>
<path id="af2b64c4-1d88-45b0-a92f-54de07391bf6-258" class="st0" d="M415.2,600v-2c4,0,8-0.1,12-0.2l0.1,2
	C423.2,599.9,419.2,600,415.2,600z M403.1,599.8c-4-0.2-8.1-0.4-12.1-0.7l0.2-2c4,0.3,8,0.6,12,0.7L403.1,599.8z M439.3,599l-0.2-2
	c4-0.3,8-0.7,11.9-1.2l0.2,2C447.3,598.3,443.3,598.7,439.3,599L439.3,599z M379,597.9c-4-0.5-8-1-12-1.7l0.3-2
	c3.9,0.6,7.9,1.2,11.9,1.7L379,597.9z M463.3,596.1l-0.3-2c3.9-0.6,7.9-1.4,11.8-2.2l0.4,2C471.2,594.8,467.2,595.5,463.3,596.1
	L463.3,596.1z M355.2,594c-3.9-0.8-7.9-1.7-11.8-2.6l0.5-1.9c3.9,0.9,7.8,1.8,11.7,2.6L355.2,594z M487,591.3l-0.5-1.9
	c3.9-1,7.8-2,11.6-3.1l0.6,1.9C494.8,589.3,490.8,590.4,487,591.3L487,591.3z M331.7,588.3c-3.9-1.1-7.7-2.3-11.5-3.6l0.6-1.9
	c3.8,1.3,7.6,2.5,11.5,3.6L331.7,588.3z M510.1,584.6l-0.6-1.9c3.8-1.3,7.6-2.6,11.3-4l0.7,1.9C517.8,582,513.9,583.3,510.1,584.6
	L510.1,584.6z M308.8,580.6c-3.8-1.4-7.5-2.9-11.2-4.5l0.8-1.8c3.7,1.6,7.4,3.1,11.2,4.5L308.8,580.6z M532.7,576l-0.8-1.8
	c3.7-1.6,7.3-3.2,10.9-4.9l0.9,1.8C540.1,572.8,536.4,574.5,532.7,576L532.7,576z M286.5,571.2c-3.6-1.7-7.3-3.5-10.8-5.4l0.9-1.8
	c3.5,1.9,7.1,3.7,10.8,5.4L286.5,571.2z M554.5,565.7l-0.9-1.8c3.5-1.9,7.1-3.8,10.5-5.8l1,1.7C561.6,561.9,558,563.8,554.5,565.7
	L554.5,565.7z M265.1,559.9c-3.5-2-7-4.1-10.3-6.3l1.1-1.7c3.4,2.1,6.8,4.2,10.3,6.2L265.1,559.9z M575.3,553.6l-1.1-1.7
	c3.4-2.1,6.7-4.3,10-6.6l1.1,1.6C582.1,549.2,578.7,551.5,575.3,553.6L575.3,553.6z M244.6,547c-3.3-2.3-6.6-4.7-9.8-7.1l1.2-1.6
	c3.2,2.4,6.5,4.8,9.7,7L244.6,547z M595.2,539.9l-1.2-1.6c3.2-2.4,6.3-4.9,9.4-7.4l1.3,1.5C601.6,535,598.4,537.5,595.2,539.9
	L595.2,539.9z M225.3,532.4c-3.1-2.5-6.2-5.2-9.2-7.8l1.3-1.5c3,2.6,6.1,5.3,9.1,7.8L225.3,532.4z M613.9,524.6l-1.3-1.5
	c3-2.6,5.9-5.4,8.8-8.1l1.4,1.4C619.9,519.2,616.9,521.9,613.9,524.6L613.9,524.6z M207.2,516.4c-2.9-2.8-5.8-5.6-8.5-8.5l1.4-1.4
	c2.8,2.9,5.6,5.7,8.5,8.5L207.2,516.4z M631.3,507.9l-1.4-1.4c2.8-2.9,5.5-5.8,8.1-8.8l1.5,1.3C636.8,502,634.1,505,631.3,507.9
	L631.3,507.9z M190.5,499c-2.7-3-5.3-6.1-7.8-9.2l1.5-1.3c2.5,3.1,5.1,6.1,7.8,9.1L190.5,499z M647.3,489.8l-1.5-1.3
	c2.5-3.1,5-6.3,7.4-9.4l1.6,1.2C652.4,483.5,649.9,486.7,647.3,489.8L647.3,489.8z M175.2,480.3c-2.4-3.2-4.8-6.5-7.1-9.8l1.6-1.1
	c2.3,3.3,4.6,6.5,7,9.7L175.2,480.3z M661.9,470.5l-1.6-1.1c2.3-3.3,4.5-6.7,6.6-10l1.7,1.1C666.4,463.8,664.2,467.2,661.9,470.5
	L661.9,470.5z M161.5,460.5c-2.1-3.4-4.2-6.8-6.3-10.3l1.7-1c2,3.4,4.1,6.9,6.2,10.2L161.5,460.5z M674.8,450.1l-1.7-1
	c2-3.5,4-7,5.8-10.5l1.8,0.9C678.8,443,676.8,446.6,674.8,450.1L674.8,450.1z M149.4,439.6c-1.9-3.5-3.7-7.2-5.4-10.8l1.8-0.9
	c1.7,3.6,3.5,7.2,5.4,10.7L149.4,439.6z M686.1,428.7l-1.8-0.9c1.7-3.6,3.4-7.3,4.9-11l1.8,0.8C689.5,421.3,687.8,425,686.1,428.7
	L686.1,428.7z M139,417.9c-1.6-3.7-3.1-7.4-4.5-11.2l1.9-0.7c1.4,3.7,2.9,7.4,4.5,11.1L139,417.9z M695.6,406.4l-1.9-0.7
	c1.4-3.7,2.8-7.6,4-11.3l1.9,0.6C698.4,398.8,697,402.6,695.6,406.4L695.6,406.4z M130.5,395.3c-1.3-3.8-2.5-7.7-3.6-11.5l1.9-0.6
	c1.1,3.8,2.3,7.7,3.6,11.5L130.5,395.3z M703.2,383.5l-1.9-0.6c1.1-3.8,2.1-7.7,3.1-11.6l1.9,0.5
	C705.4,375.7,704.4,379.6,703.2,383.5L703.2,383.5z M123.7,372.1c-1-3.9-1.9-7.9-2.7-11.8l2-0.4c0.8,3.9,1.7,7.8,2.6,11.7
	L123.7,372.1z M709,360l-2-0.4c0.8-3.9,1.5-7.9,2.1-11.8l2,0.3C710.5,352.1,709.8,356.1,709,360L709,360z M118.9,348.4
	c-0.6-3.9-1.2-8-1.7-12l2-0.2c0.5,4,1,8,1.7,11.9L118.9,348.4z M712.8,336.2l-2-0.2c0.5-4,0.9-8,1.2-11.9l2,0.2
	C713.7,328.1,713.3,332.2,712.8,336.2L712.8,336.2z M116,324.5c-0.3-4-0.6-8.1-0.7-12.1l2-0.1c0.2,4,0.4,8,0.7,12L116,324.5z
	 M714.8,312.1l-2-0.1c0.2-4,0.2-8,0.2-12v-0.7h2v0.7C715,304,714.9,308.1,714.8,312.1L714.8,312.1z M117,300.3h-2V300
	c0-3.9,0.1-7.9,0.2-11.7l2,0.1c-0.1,3.9-0.2,7.8-0.2,11.7L117,300.3z M712.7,287.3c-0.2-4-0.4-8-0.7-12l2-0.2
	c0.3,4,0.6,8.1,0.7,12.1L712.7,287.3z M117.9,276.4l-2-0.2c0.3-4,0.7-8,1.2-12l2,0.2C118.6,268.4,118.2,272.4,117.9,276.4
	L117.9,276.4z M710.8,263.4c-0.5-3.9-1.1-7.9-1.7-11.9l2-0.3c0.6,4,1.2,8,1.7,12L710.8,263.4z M120.8,252.5l-2-0.3
	c0.6-4,1.4-8,2.1-11.9l2,0.4C122.1,244.6,121.4,248.6,120.8,252.5L120.8,252.5z M706.9,239.8c-0.8-3.9-1.7-7.8-2.7-11.7l1.9-0.5
	c1,3.9,1.9,7.8,2.7,11.8L706.9,239.8z M125.5,229l-1.9-0.5c1-3.9,2-7.8,3.1-11.7l1.9,0.6C127.5,221.2,126.5,225.2,125.5,229
	L125.5,229z M701.1,216.5c-1.1-3.8-2.3-7.7-3.6-11.4l1.9-0.6c1.3,3.8,2.5,7.7,3.6,11.5L701.1,216.5z M132.1,206l-1.9-0.6
	c1.3-3.8,2.6-7.6,4.1-11.4l1.9,0.7C134.8,198.4,133.4,202.2,132.1,206L132.1,206z M693.5,193.7c-1.4-3.7-2.9-7.5-4.5-11.1l1.8-0.8
	c1.6,3.7,3.1,7.4,4.5,11.2L693.5,193.7z M140.7,183.5l-1.8-0.8c1.6-3.7,3.2-7.4,5-11l1.8,0.9C143.9,176.1,142.2,179.8,140.7,183.5
	L140.7,183.5z M684.1,171.7c-1.7-3.6-3.5-7.2-5.4-10.7l1.8-0.9c1.9,3.5,3.7,7.2,5.4,10.8L684.1,171.7z M150.9,161.7l-1.8-0.9
	c1.9-3.6,3.8-7.1,5.8-10.6l1.7,1C154.8,154.7,152.8,158.2,150.9,161.7L150.9,161.7z M672.9,150.6c-2-3.4-4.1-6.9-6.2-10.2l1.7-1.1
	c2.1,3.4,4.3,6.8,6.3,10.3L672.9,150.6z M163,140.9l-1.7-1.1c2.1-3.4,4.4-6.8,6.7-10.1l1.6,1.1C167.3,134.2,165.1,137.6,163,140.9
	L163,140.9z M660,130.3c-2.3-3.3-4.6-6.5-7-9.7l1.6-1.2c2.4,3.2,4.8,6.5,7.1,9.8L660,130.3z M176.6,121.2L175,120
	c2.4-3.2,4.9-6.4,7.5-9.5l1.5,1.3C181.5,114.8,179,118,176.6,121.2L176.6,121.2z M645.6,111.2c-2.5-3.1-5.1-6.1-7.8-9.1l1.5-1.3
	c2.7,3,5.3,6.1,7.8,9.2L645.6,111.2z M191.8,102.6l-1.5-1.3c2.7-3,5.4-6,8.2-8.9l1.4,1.4C197.2,96.6,194.4,99.6,191.8,102.6
	L191.8,102.6z M629.6,93.3c-2.8-2.9-5.6-5.7-8.5-8.5l1.4-1.4c2.9,2.8,5.8,5.6,8.6,8.5L629.6,93.3z M208.4,85.3l-1.4-1.4
	c2.9-2.8,5.9-5.5,8.9-8.2l1.3,1.5C214.2,79.8,211.3,82.5,208.4,85.3L208.4,85.3z M612.3,76.7c-3-2.6-6.1-5.3-9.2-7.8l1.3-1.6
	c3.1,2.5,6.2,5.2,9.2,7.8L612.3,76.7z M226.3,69.3l-1.3-1.5c3.1-2.5,6.3-5.1,9.5-7.5l1.2,1.6C232.6,64.3,229.4,66.8,226.3,69.3
	L226.3,69.3z M593.7,61.5c-3.2-2.4-6.5-4.8-9.7-7l1.1-1.6c3.3,2.3,6.6,4.6,9.8,7.1L593.7,61.5z M245.5,54.9l-1.1-1.6
	c3.3-2.3,6.7-4.5,10.1-6.7l1.1,1.7C252.1,50.4,248.7,52.6,245.5,54.9L245.5,54.9z M573.9,47.9c-3.4-2.1-6.8-4.2-10.3-6.2l1-1.7
	c3.5,2,7,4.1,10.4,6.3L573.9,47.9z M265.7,42l-1-1.7c3.5-2,7-4,10.5-5.8l0.9,1.8C272.7,38.1,269.1,40,265.7,42L265.7,42z
	 M553.1,35.9c-3.5-1.9-7.2-3.7-10.8-5.4l0.9-1.8c3.6,1.7,7.3,3.5,10.8,5.4L553.1,35.9z M286.9,30.9l-0.9-1.8c3.6-1.7,7.3-3.4,11-5
	l0.8,1.8C294.1,27.5,290.5,29.2,286.9,30.9L286.9,30.9z M531.4,25.6c-3.7-1.6-7.4-3.1-11.2-4.5l0.7-1.9c3.8,1.4,7.5,2.9,11.2,4.5
	L531.4,25.6z M308.9,21.5l-0.7-1.9c3.7-1.4,7.6-2.8,11.4-4.1l0.6,1.9C316.4,18.7,312.6,20,308.9,21.5L308.9,21.5z M508.9,17.1
	c-3.8-1.3-7.6-2.4-11.5-3.5l0.6-1.9c3.9,1.1,7.7,2.3,11.5,3.6L508.9,17.1z M331.6,13.8l-0.6-1.9c3.8-1.1,7.8-2.2,11.7-3.1l0.5,1.9
	C339.3,11.7,335.4,12.7,331.6,13.8L331.6,13.8z M485.8,10.5c-3.9-0.9-7.8-1.8-11.7-2.6l0.4-2c3.9,0.8,7.9,1.7,11.8,2.6L485.8,10.5z
	 M354.9,8.1l-0.4-2c3.9-0.8,7.9-1.5,11.9-2.2l0.3,2C362.8,6.5,358.8,7.3,354.9,8.1L354.9,8.1z M462.3,5.7c-3.9-0.6-7.9-1.2-11.9-1.7
	l0.2-2c4,0.5,8,1,12,1.7L462.3,5.7z M378.6,4.2l-0.2-2c4-0.5,8-0.9,12-1.2l0.2,2C386.6,3.3,382.5,3.7,378.6,4.2L378.6,4.2z
	 M438.5,2.9c-4-0.3-8-0.5-12-0.7l0.1-2c4,0.2,8.1,0.4,12.1,0.7L438.5,2.9z M402.5,2.3l-0.1-2c4-0.2,8.1-0.3,12.1-0.3v2
	C410.5,2,406.5,2.1,402.5,2.3L402.5,2.3z"/>
<path class="st1" d="M601.3,673.3h-372c-18.6,0-33.7-14.3-33.8-31.8V134.3c0-17.5,15.2-31.7,33.8-31.8h372
	c18.6,0,33.7,14.3,33.8,31.8v507.2C635,659,619.9,673.3,601.3,673.3z"/>
<path class="st2" d="M605,642.8H225.6c-6,0-10.9-4.4-10.9-9.7v-487c0-5.3,4.9-9.7,10.9-9.7H605c6,0,10.9,4.4,10.9,9.7v487
	C615.9,638.4,611,642.7,605,642.8z"/>
<path id="a2e92954-9457-422e-9ad9-6983f1497d30-259" class="st3" d="M415.3,292c-33.1,0-60-26.8-60-59.9v0V232c0-0.1,0-0.3,0-0.4
	c0.2-33.1,27.2-59.8,60.4-59.6s59.8,27.2,59.6,60.4C475.1,265.4,448.3,292,415.3,292L415.3,292L415.3,292z M415.3,173.3
	c-32.3,0.1-58.5,26.1-58.7,58.4c0,0.1,0,0.2,0,0.3c0,32.4,26.3,58.7,58.7,58.7c32.4,0,58.7-26.3,58.7-58.7S447.7,173.3,415.3,173.3
	L415.3,173.3L415.3,173.3L415.3,173.3z"/>
<path class="st1" d="M297.2,352.2v-19c0-2.2-1.8-4-4-4s-4,1.8-4,4l0,0v19c-4,2.2-5.4,7.3-3.2,11.2c2.2,4,7.3,5.4,11.2,3.2
	c4-2.2,5.4-7.3,3.2-11.2C299.6,354,298.5,352.9,297.2,352.2z"/>
<path class="st2" d="M291.7,333.2c0.1-0.8,0.7-1.3,1.5-1.3c0.7,0.1,1.2,0.6,1.3,1.3v12.3h-2.8V333.2z"/>
<rect id="b3fb4dd5-f808-4e17-8bda-c83ab4154b38" x="328.3" y="347.1" class="st4" width="226.1" height="2.7"/>
<circle id="a8297b77-abf6-4c40-82ff-587ecc4408bb" class="st1" cx="402.4" cy="348.4" r="6.3"/>
<rect id="bab01c70-216f-4a38-9df4-dd1bd7c7e26a" x="328.3" y="347.1" class="st1" width="74.1" height="2.7"/>
<rect id="e79b1bf0-5be3-436b-bf8d-05f197630a0c" x="328.3" y="422.1" class="st5" width="226.1" height="2.7"/>
<circle id="b712d611-a245-46ba-a930-54b84f7b4163" class="st1" cx="458.4" cy="423.4" r="6.3"/>
<rect id="b0ead41e-44a3-4ee0-8520-af8fabea1192" x="328.3" y="422.1" class="st1" width="130.7" height="2.7"/>
<rect id="b6f69233-a0f8-4d31-9338-7486181d31fc" x="328.3" y="492.1" class="st5" width="226.1" height="2.7"/>
<circle id="bad96c00-62fc-4855-8211-fc7f6ab481a1" class="st1" cx="520.4" cy="493.4" r="6.3"/>
<rect id="af19c379-2974-46fc-899f-5cc4a77f219a" x="328.3" y="492.1" class="st1" width="192.7" height="2.7"/>
<rect id="a7883c47-f1a1-461a-9e9c-5c6b67118f50" x="328.3" y="561.7" class="st5" width="226.1" height="2.7"/>
<circle id="b15fd4c9-9da1-4107-8e2e-e457c3dc6651" class="st1" cx="402.4" cy="563" r="6.3"/>
<rect id="ad5563c6-4e4d-449d-9957-f2853a47960a" x="328.3" y="561.7" class="st1" width="74.1" height="2.7"/>
<path id="eea30c9c-6cf0-4066-b912-86146cbd2118-260" class="st6" d="M778.1,519.5c-1.9,1.3-4.2,1.8-6.5,1.2l0,0
	c-4.1-1.1-6.5-5.3-5.4-9.4l0,0c0-0.1,0.1-0.2,0.1-0.3c0.1-0.4,0.3-0.7,0.4-1.1l-15.1-67.8c-1-3.3,0.9-6.7,4.2-7.6s6.7,0.9,7.6,4.2
	c0,0,0,0,0,0l0,0l14.2,68c3.6,2.2,4.7,7,2.5,10.6C779.6,518.1,778.9,518.9,778.1,519.5L778.1,519.5z"/>
<path id="ac4255b8-020c-44e3-ab14-e14fd89a049c-261" class="st7" d="M798.1,664.9h-8.2l-3.9-31.6h12.1L798.1,664.9z"/>
<path id="af525750-d0e3-45ad-9660-762cb7e311b6-262" class="st7" d="M800.2,672.8h-26.4v-0.3c0-5.7,4.6-10.3,10.3-10.3h16.1
	L800.2,672.8z"/>
<path id="ba4a26e0-48da-419d-a14f-29a5450bbc55-263" class="st6" d="M798.1,664.9h-8.2l-3.9-31.6h12.1L798.1,664.9z"/>
<path id="a2854e04-3283-490f-9f16-1ef57dfdaf34-264" class="st8" d="M800.2,672.8h-26.4v-0.3c0-5.7,4.6-10.3,10.3-10.3h16.1
	L800.2,672.8z"/>
<path id="e3533895-20eb-437c-a8b9-d90aabae4705-265" class="st7" d="M716,664.6l-7.8-2.5l6-31.2l11.5,3.7L716,664.6z"/>
<path id="b380c79c-5b9e-4690-aa56-fb387712df26-266" class="st7" d="M715.6,672.8l-25.1-8.1l0.1-0.3c1.7-5.4,7.5-8.4,12.9-6.6l0,0
	l15.3,5L715.6,672.8z"/>
<path id="f995137d-2975-4d43-9c64-e41688abb776-267" class="st6" d="M716,664.6l-7.8-2.5l6-31.2l11.5,3.7L716,664.6z"/>
<path id="fe32566e-b4de-4756-a6f4-50bd207e7260-268" class="st8" d="M715.6,672.8l-25.1-8.1l0.1-0.3c1.7-5.4,7.5-8.4,12.9-6.6l0,0
	l15.3,5L715.6,672.8z"/>
<circle id="bf09f3df-614d-423b-8418-3c355284b19b" class="st6" cx="751.5" cy="410" r="13.8"/>
<path id="bbed6af0-5d8d-4a23-96ff-6cc9a01bea53-269" class="st8" d="M771.3,463.7c1.9-7.1-6.9-29.5-7.6-32.3
	c-3.4-0.8-11.4,0.7-16.3-0.3c-6.9,5.8-12.5,14.1-16.3,18c-4,4.1-6.5,6.9-2.4,16.4c3,7.5,4.3,15.6,3.9,23.8l3.3,29.3
	c0,0-13.8,38.7-12.7,64.6l-12.7,63.5c2.4,3.9,7.5,5.4,11.6,3.3c0,0,18.2-32.6,16.6-56.4l19.9-44.2c0,0,13.8,42,17.7,45.9l9.9,59.7
	c0,0,9.4,2.8,13.8,0c0,0,1.7-57.5-7.7-66.9c0,0-9.4-39.8-7.2-50.3c2.2-10.5,2.8-26.5-13.8-40.9c0,0,0.2,0.1-5-9.4L771.3,463.7z"/>
<path id="a2a63551-b0d7-4a16-ad64-85d9a8343e67-270" class="st8" d="M758.7,388.7L758.7,388.7c-0.8,0-1.5,0.1-2.3,0.2
	c-1.4-0.7-2.9-1-4.4-1h-0.4c-7.7,0-14,7-14,15.6h2.6l0.4-3.2l0.6,3.2h2.2c-0.7,2.5-1,5.2-1,7.8v15.9h3.9l2.3-5.9l-0.6,5.9h25.1
	l2.1-5.3l-0.5,5.3h2.8v-12.5C777.5,400.3,769.1,388.7,758.7,388.7z"/>
<path id="a1b5d12f-af35-486c-add9-83519abc8b05-271" class="st6" d="M731.2,527.3c-2.3,0.3-4.6-0.4-6.3-1.9l0,0
	c-3.1-2.8-3.4-7.7-0.6-10.8l0,0c0.1-0.1,0.1-0.2,0.2-0.2c0.3-0.3,0.6-0.5,0.9-0.7l17.5-67.2c0.7-3.3,3.9-5.5,7.2-4.8
	c3.3,0.7,5.5,3.9,4.8,7.2l0,0l-18.3,67c2.2,3.6,1,8.3-2.6,10.5C733.1,526.8,732.2,527.2,731.2,527.3L731.2,527.3z"/>
<ellipse id="e20e7d5b-e8e8-4858-9628-d78b97e65045" class="st9" cx="84.6" cy="667.7" rx="4.9" ry="6.4"/>
<path class="st9" d="M102.8,596.6c6.6-8.4,6.6-20.3,0-28.8l0,0c0.7-0.8,1.3-1.7,1.8-2.7l-12.8-2.1l13.8,0.1
	c2.7-5.8,2.8-12.5,0.4-18.5l-18.5,9.6l17.1-12.6c-6.4-11.1-20.7-14.9-31.8-8.5s-14.9,20.7-8.5,31.8c0.6,1,1.2,1.9,1.9,2.8
	c-1,1.3-1.9,2.7-2.7,4.2l16.6,8.6l-17.7-5.9c-2.5,7.5-1.1,15.7,3.8,21.9c-7.9,10.1-6.2,24.7,3.9,32.7c3,2.3,6.4,3.9,10.1,4.6
	c-0.3,0.9-0.5,1.8-0.5,2.7c0,1.4,0.3,2.7,1,3.9c-1.4,2.4-1.4,5.4,0,7.8c-1.4,2.4-1.4,5.4,0,7.8c-0.7,1.2-1,2.5-1,3.9
	c0,3.5,2.2,6.4,4.9,6.4s4.9-2.8,4.9-6.4c-1.4-2.4-1.4-5.4,0-7.8c0-1.4-0.3-2.7-1-3.9c1.4-2.4,1.4-5.4,0-7.8c0.7-1.2,1-2.5,1-3.9
	c0-0.9-0.2-1.9-0.5-2.8c12.6-2.5,20.8-14.7,18.4-27.3C106.7,602.9,105.1,599.5,102.8,596.6z"/>
<path id="aa6e87ce-3387-49c0-864d-01816dc3159f-272" class="st10" d="M61.2,582.2c0,5.2,1.7,10.3,5,14.4
	c-7.9,10.1-6.2,24.7,3.9,32.7s24.7,6.2,32.7-3.9c6.6-8.4,6.6-20.3,0-28.8C105.9,592.7,61.2,579.6,61.2,582.2z"/>
<path class="st9" d="M45,613.6L45,613.6c0.4-0.5,0.7-1,1-1.5l-7.1-1.2l7.7,0.1c1.5-3.2,1.6-7,0.2-10.3l-10.3,5.4l9.5-7
	c-3.6-6.2-11.5-8.3-17.7-4.7c-6.2,3.6-8.3,11.5-4.7,17.7c0.3,0.5,0.7,1,1,1.5c-0.6,0.7-1.1,1.5-1.5,2.3l9.2,4.8l-9.9-3.3
	c-1.4,4.2-0.6,8.7,2.1,12.2c-4.4,5.6-3.5,13.8,2.2,18.2c1.6,1.3,3.6,2.2,5.6,2.6c-0.2,0.5-0.3,1-0.3,1.5c0.8,1.3,0.8,3,0,4.3
	c0.8,1.3,0.8,3,0,4.3c0.8,1.3,0.8,3,0,4.3c0.8,1.3,0.8,3,0,4.3c0,2,1.2,3.5,2.7,3.5c1.5,0,2.7-1.6,2.7-3.5c-0.8-1.3-0.8-3,0-4.3
	c-0.8-1.3-0.8-3,0-4.3c-0.8-1.3-0.8-3,0-4.3c-0.8-1.3-0.8-3,0-4.3c0-0.5-0.1-1-0.3-1.5c7-1.4,11.6-8.2,10.3-15.2
	c-0.4-2-1.3-3.9-2.5-5.5C49.3,624.7,49.9,618,45,613.6z"/>
<path class="st9" d="M139.1,630.9L139.1,630.9c0.3-0.4,0.5-0.8,0.8-1.2l-5.5-0.9l5.9,0c1.1-2.5,1.2-5.4,0.2-7.9l-7.9,4.1l7.3-5.4
	c-2.8-4.8-8.9-6.4-13.6-3.7s-6.4,8.9-3.7,13.6c0.2,0.4,0.5,0.8,0.8,1.2c-0.4,0.6-0.8,1.2-1.1,1.8l7.1,3.7l-7.6-2.5
	c-1.1,3.2-0.5,6.7,1.6,9.4c-3.4,4.3-2.7,10.6,1.7,14c1.3,1,2.8,1.7,4.3,2c-0.1,0.4-0.2,0.8-0.2,1.2c0.6,1,0.6,2.3,0,3.3
	c0.6,1,0.6,2.3,0,3.3c0.6,1,0.6,2.3,0,3.3c0,1.5,0.9,2.7,2.1,2.7c1.2,0,2.1-1.2,2.1-2.7c-0.6-1-0.6-2.3,0-3.3c-0.6-1-0.6-2.3,0-3.3
	c-0.6-1-0.6-2.3,0-3.3c0-0.4-0.1-0.8-0.2-1.2c5.4-1,8.9-6.3,7.9-11.7c-0.3-1.6-1-3-2-4.3C142,639.6,142.1,634.4,139.1,630.9z"/>
<path id="b799e5a5-ef38-4021-b162-aaf6c43020c5-273" class="st2" d="M414.8,126.8c-4.3,0-7.8-3.5-7.8-7.9c0-4.3,3.5-7.8,7.9-7.8
	s7.8,3.5,7.8,7.9c0,2.1-0.8,4.1-2.3,5.5C418.8,126,416.8,126.8,414.8,126.8z"/>
<path id="b4f17ecd-a761-4c1d-9635-212bbdf6143f-274" class="st5" d="M829.3,674.1H1.1c-0.6,0.1-1-0.3-1.1-0.9
	c-0.1-0.6,0.3-1,0.9-1.1c0.1,0,0.1,0,0.2,0h828.2c0.6-0.1,1,0.3,1.1,0.9c0.1,0.6-0.3,1-0.9,1.1C829.4,674.1,829.4,674.1,829.3,674.1
	z"/>
<circle class="st2" cx="293.1" cy="359.3" r="4"/>
<path class="st1" d="M302.7,419.3c0.3,4.7-3.3,8.7-8,9c-4.7,0.3-8.7-3.3-9-8c0-0.3,0-0.6,0-1c0-5,8-10,8-19
	C293.7,395.6,302.7,414.4,302.7,419.3z"/>
<path class="st2" d="M299.3,419.2c0.2,2.8-2,5.2-4.8,5.4c-2.8,0.2-5.2-2-5.4-4.8c0-0.2,0-0.4,0-0.6c0-3,4.8-6,4.8-11.4
	C293.9,405,299.3,416.2,299.3,419.2z"/>
<path class="st1" d="M293.1,476.9c-6.9,0-12.4,5.2-12.4,11.5c0,3.9,2,7.4,5.3,9.5v3.7c0,0.9,0.8,1.7,1.8,1.7l0,0h10.6
	c0.9,0,1.7-0.7,1.8-1.6l0,0v-3.7c3.3-2.1,5.3-5.6,5.3-9.5C305.5,482.1,300,476.9,293.1,476.9z"/>
<path class="st2" d="M293.1,479.9c-5.3,0-9.5,4-9.5,8.9c0,3,1.6,5.7,4.1,7.3v2.9c0,0.7,0.6,1.3,1.4,1.3c0,0,0,0,0,0h0h8.2
	c0.7,0,1.3-0.5,1.4-1.3v0v-2.9c2.5-1.6,4.1-4.3,4.1-7.3C302.7,483.9,298.4,479.9,293.1,479.9z"/>
<path class="st1" d="M288.2,504.8c-0.6,0-1,0.4-1,1s0.4,1,1,1h10c0.6,0,1-0.4,1-1s-0.4-1-1-1H288.2z"/>
<path class="st1" d="M288.2,508.8c-0.6,0-1,0.4-1,1s0.4,1,1,1h10c0.6,0,1-0.4,1-1s-0.4-1-1-1H288.2z"/>
<path class="st1" d="M300.1,548.3l0.3-0.7c0.4-0.9-0.1-1.9-1-2.3c-0.2-0.1-0.4-0.1-0.7-0.1h-12.1c-1,0-1.8,0.8-1.8,1.8v1.4H300.1z"
	/>
<path class="st1" d="M298.5,558.9L298.5,558.9c-1,0-1.8-0.8-1.8-1.8c0-0.2,0-0.5,0.1-0.7l2.1-5.1h-14v11.3c0,1,0.8,1.8,1.8,1.8
	c0,0,0,0,0,0h1.9c1,0,1.8,0.8,1.8,1.8v7.2c0,1,0.8,1.8,1.8,1.8c0.7,0,1.3-0.4,1.6-1l6.3-12.7c0.4-0.9,0.1-1.9-0.8-2.4
	C299.1,559,298.8,558.9,298.5,558.9z"/>
<path class="st1" d="M286.7,429.8c-0.8,0-1.5,0.7-1.5,1.5s0.7,1.5,1.5,1.5l0,0h14c0.8,0,1.5-0.7,1.5-1.5s-0.7-1.5-1.5-1.5H286.7z"/>
<path class="st1" d="M286.7,435.8c-0.8,0-1.5,0.7-1.5,1.5s0.7,1.5,1.5,1.5l0,0h14c0.8,0,1.5-0.7,1.5-1.5s-0.7-1.5-1.5-1.5H286.7z"/>
<circle class="st1" cx="419.7" cy="248.3" r="1"/>
<path class="st1" d="M442,230.3l-26-24c-0.4-0.4-1-0.4-1.4,0l-11.9,11v-4.9c0-0.6-0.4-1-1-1h-2c-0.6,0-1,0.4-1,1v8.6l-10.1,9.4
	c-0.4,0.4-0.4,1-0.1,1.4c0.2,0.2,0.5,0.3,0.7,0.3h5c0.6,0,1,0.4,1,1v24.4c0,0.6,0.4,1,1,1h38c0.6,0,1-0.4,1-1V233c0-0.6,0.4-1,1-1h5
	c0.6,0,1-0.4,1-1C442.3,230.7,442.2,230.5,442,230.3z M409.7,240.8h11.2c0.6,0,1,0.4,1,1v14.6h-13.2v-14.6
	C408.7,241.2,409.1,240.8,409.7,240.8z"/>
</svg>
